<?xml version="1.0" encoding="UTF-8"?>
<svg version="1.1" xmlns="http://www.w3.org/2000/svg" width="458" height="525">
<path d="M0 0 C151.14 0 302.28 0 458 0 C458 173.25 458 346.5 458 525 C306.86 525 155.72 525 0 525 C0 351.75 0 178.5 0 0 Z " fill="#FEFEFE" transform="translate(0,0)"/>
<path d="M0 0 C0.33 0.99 0.66 1.98 1 3 C2.15113281 2.95359375 3.30226562 2.9071875 4.48828125 2.859375 C43.50997937 1.77900339 81.0469116 19.57162551 109 46 C109.74894531 46.69609375 110.49789063 47.3921875 111.26953125 48.109375 C121.27936675 57.71601223 129.18010342 68.96164005 136 81 C136.32709961 81.57492188 136.65419922 82.14984375 136.99121094 82.7421875 C149.89378857 105.8031848 155.2251676 130.21500784 155.3125 156.375 C155.31511841 157.12645294 155.31773682 157.87790588 155.32043457 158.65213013 C155.33401417 195.09927821 155.33401417 195.09927821 145.50390625 206.77734375 C144 208 144 208 142 208 C141.7525 208.5775 141.505 209.155 141.25 209.75 C139.83272743 212.30109062 138.08817713 213.97973107 136 216 C136.44730469 216.65484375 136.89460938 217.3096875 137.35546875 217.984375 C149.31736826 236.04199728 152.45621295 254.79042698 148.921875 276.1875 C144.82928871 293.1127721 135.81755893 308.56679696 127.69238281 323.80761719 C126.13339462 326.74837448 124.60269865 329.70135761 123.0859375 332.6640625 C122.64491699 333.52056396 122.20389648 334.37706543 121.74951172 335.25952148 C120.95223602 336.80874127 120.15915002 338.36012931 119.37158203 339.91430664 C112.29718953 353.52292867 112.29718953 353.52292867 106 356 C103.4921875 356.01171875 103.4921875 356.01171875 100.875 355.6875 C99.57175781 355.53861328 99.57175781 355.53861328 98.2421875 355.38671875 C96 355 96 355 94 354 C94 353.01 94 352.02 94 351 C92.906875 350.87625 91.81375 350.7525 90.6875 350.625 C87 350 87 350 84 348 C84 347.34 84 346.68 84 346 C83.46632813 346.19335938 82.93265625 346.38671875 82.3828125 346.5859375 C65.37881865 352.52850974 47.88523026 353.51674858 31.26171875 345.71484375 C19.14618611 338.95049505 7.31419436 327.08331547 2 314 C2 313.01 2 312.02 2 311 C3.32 311.33 4.64 311.66 6 312 C6 312.66 6 313.32 6 314 C6.99 314.33 7.98 314.66 9 315 C8.71469644 312.811661 8.42144575 310.62435747 8.125 308.4375 C7.88136719 306.61025391 7.88136719 306.61025391 7.6328125 304.74609375 C7.08673003 301.04948834 7.08673003 301.04948834 6.03125 297.75 C4.65309675 292.73853362 4.03156407 287.71116825 3.375 282.5625 C3.17390625 281.03592773 3.17390625 281.03592773 2.96875 279.47851562 C2.64112846 276.98625178 2.3183416 274.49346322 2 272 C4.85790931 272.58484642 6.03712353 273.03028498 8.375 274.9375 C10.89329681 277.1590276 10.89329681 277.1590276 14.0625 278 C17 279 17 279 18.81640625 281.03515625 C22.30705181 284.17611281 25.57955938 283.48331436 30.078125 283.32421875 C33.65846309 282.92693525 36.09066373 282.14372146 39 280 C40.40466953 277.94906855 40.40466953 277.94906855 41 276 C41.66 276 42.32 276 43 276 C42.57427946 281.96008757 41.48990851 287.58708031 40.0625 293.375 C39.80774902 294.4278418 39.80774902 294.4278418 39.54785156 295.50195312 C38.71166566 298.79891469 37.90594199 301.14108702 36 304 C35.33256123 306.41344667 35.33256123 306.41344667 36 309 C38.53390654 311.42373669 40.8564241 313.42821205 44 315 C44 314.34 44 313.68 44 313 C43.01 312.67 42.02 312.34 41 312 C40.67 310.35 40.34 308.7 40 307 C40.61407715 307.01571045 41.2281543 307.0314209 41.86083984 307.04760742 C44.69879589 307.11076194 47.53660333 307.14924177 50.375 307.1875 C51.34050781 307.21263672 52.30601562 307.23777344 53.30078125 307.26367188 C60.0569779 307.33168728 65.6552462 306.2871055 72 304 C73.051875 303.649375 74.10375 303.29875 75.1875 302.9375 C86.79907177 294.93841722 91.80330595 277.76915304 95.02050781 264.69287109 C105.16333053 223.83666947 105.16333053 223.83666947 118 211 C121.375 209 121.375 209 124 208 C124 209.32 124 210.64 124 212 C125.32 212 126.64 212 128 212 C128.0825 211.2575 128.165 210.515 128.25 209.75 C129.16096373 206.40979966 130.35636147 205.19044335 133 203 C134.33333333 202.33333333 135.66666667 201.66666667 137 201 C137.639375 200.360625 138.27875 199.72125 138.9375 199.0625 C141 197 141 197 143.5625 195.9375 C147.68933912 192.65719198 148.01387198 188.00459972 149 183 C149.20625 182.03578125 149.4125 181.0715625 149.625 180.078125 C156.36021544 142.47317215 146.31960265 102.10124022 124.80859375 70.8125 C119.93596843 64.1687813 114.66156123 57.98025839 109 52 C108.18015625 51.11570313 107.3603125 50.23140625 106.515625 49.3203125 C78.7898541 20.36410798 41.03457467 8.89384594 2 6 C1.67 7.32 1.34 8.64 1 10 C0.36835938 9.90460938 -0.26328125 9.80921875 -0.9140625 9.7109375 C-8.88457204 8.72323747 -16.11970815 9.60800684 -24 11 C-24.33 11.99 -24.66 12.98 -25 14 C-26.65614657 14.38218767 -28.32457024 14.71395102 -30 15 C-30.33 14.67 -30.66 14.34 -31 14 C-36.76593661 13.55532623 -41.08243756 14.75040226 -46.375 16.75 C-47.11943359 17.02440918 -47.86386719 17.29881836 -48.63085938 17.58154297 C-50.7594262 18.37394612 -52.88018656 19.18452609 -55 20 C-56.51980469 20.56847656 -56.51980469 20.56847656 -58.0703125 21.1484375 C-60.72931787 22.16570153 -60.72931787 22.16570153 -64 24 C-64.76569158 26.04907577 -64.76569158 26.04907577 -65 28 C-66.175625 27.92394531 -67.35125 27.84789063 -68.5625 27.76953125 C-73.08396669 27.78244405 -76.2507876 29.26348027 -80 31.6875 C-80.63156006 32.08106689 -81.26312012 32.47463379 -81.91381836 32.88012695 C-99.03245842 43.48825561 -99.03245842 43.48825561 -111 58.6875 C-112 61 -112 61 -114.625 62.1875 C-127.11841102 68.89692444 -138.76372455 91.6917007 -143 105 C-142.73971327 107.27338519 -142.73971327 107.27338519 -142 109 C-142.75925781 109.31710938 -143.51851562 109.63421875 -144.30078125 109.9609375 C-148.15619962 112.87342432 -148.84579595 116.10364115 -150.1875 120.625 C-150.43435547 121.39457031 -150.68121094 122.16414063 -150.93554688 122.95703125 C-162.29848327 159.13662072 -158.38978309 202.82564117 -141.04541016 236.34033203 C-140.04086698 238.23278963 -139.02128597 240.11653785 -138 242 C-137.68450195 242.60005859 -137.36900391 243.20011719 -137.04394531 243.81835938 C-132.02939645 253.34860042 -126.04222408 261.86271134 -119 270 C-118.32735107 270.82781982 -118.32735107 270.82781982 -117.64111328 271.67236328 C-113.65658409 276.20129434 -110.00008544 277.15804042 -104.125 277.875 C-103.34125 277.99101562 -102.5575 278.10703125 -101.75 278.2265625 C-99.83645332 278.50659372 -97.91853051 278.7564449 -96 279 C-96.96873047 277.59427734 -96.96873047 277.59427734 -97.95703125 276.16015625 C-100 273 -100 273 -100.6875 270.4375 C-99.71109505 266.97570063 -97.60565639 265.9594677 -94.62890625 264.11328125 C-92.83937637 263.083831 -92.83937637 263.083831 -92 261 C-88.19755772 261.26528667 -86.34109212 261.71575656 -83.375 264.1875 C-80.03605234 268.14151696 -77.36352594 272.32526373 -74.8125 276.8125 C-73.31562661 279.77275889 -73.31562661 279.77275889 -72 281 C-68.93535032 281.49648228 -65.86334082 281.90111145 -62.78515625 282.3046875 C-60 283 -60 283 -58 286 C-58.375 289.1875 -58.375 289.1875 -59 292 C-55.37802806 293.49140021 -51.72433382 294.7874262 -48 296 C-47.67 295.67 -47.34 295.34 -47 295 C-43.52743085 294.69132719 -41.6127712 294.61298661 -38.625 296.5 C-37.820625 297.2425 -37.820625 297.2425 -37 298 C-37.53115106 302.51478398 -39.36620292 305.34666857 -42 309 C-46.21912747 308.5205537 -48.79663178 307.83374881 -52 305 C-51.67 303.68 -51.34 302.36 -51 301 C-55.18703781 299.40493798 -58.52314529 298.46277744 -63 299 C-64.22655644 299.61051571 -65.4337588 300.26065841 -66.625 300.9375 C-71.13584297 303.44643785 -75.37374544 303.47973413 -80.4609375 303.53125 C-81.29882812 303.6859375 -82.13671875 303.840625 -83 304 C-84.41572707 305.932638 -84.41572707 305.932638 -85 308 C-74.08785795 314.45264642 -63.3259341 319.7780665 -51.3203125 323.92578125 C-49.52203544 324.54973859 -47.75494715 325.2629222 -46 326 C-45.505 327.485 -45.505 327.485 -45 329 C-43.700625 329.12375 -42.40125 329.2475 -41.0625 329.375 C-37.95009146 329.67141986 -35.04133431 330.24021622 -32.01953125 331.0078125 C-24.81257491 332.65319538 -17.42311931 332.42912401 -10.06640625 332.56640625 C-8.94363281 332.59605469 -7.82085937 332.62570312 -6.6640625 332.65625 C-5.13966553 332.68428711 -5.13966553 332.68428711 -3.58447266 332.71289062 C-1 333 -1 333 2 335 C2.328125 337.12890625 2.328125 337.12890625 2.25 339.5625 C2.23453125 340.36816406 2.2190625 341.17382812 2.203125 342.00390625 C2 344 2 344 1 345 C-1.74109726 345.12770009 -4.44585997 345.185221 -7.1875 345.1875 C-7.94353516 345.19974609 -8.69957031 345.21199219 -9.47851562 345.22460938 C-14.1041866 345.23664495 -17.61209227 344.5880047 -22 343 C-24.24477519 342.68881671 -26.49567142 342.41956324 -28.75 342.1875 C-34.47489504 341.44627675 -38.64902925 340.08988342 -43.5234375 337.0234375 C-46.43526182 335.8201284 -48.85746922 335.96732172 -51.96972656 336.05566406 C-68.33629567 335.60694139 -92.08133094 319.47813928 -104 309 C-105.01900391 307.40091797 -105.01900391 307.40091797 -106.05859375 305.76953125 C-108.44360679 302.36716859 -109.12283587 302.77430246 -113 302 C-115.51989886 300.03879432 -117.67600151 297.74671506 -119.875 295.4375 C-120.49487793 294.79925293 -121.11475586 294.16100586 -121.75341797 293.50341797 C-123.51454915 291.68020008 -125.25932454 289.842726 -127 288 C-127.76828125 287.19949219 -128.5365625 286.39898437 -129.328125 285.57421875 C-134.05733699 280.44405183 -136.74606721 275.09134298 -139.3515625 268.66796875 C-140.647106 265.63847047 -142.22425599 262.89690558 -144.0065918 260.11987305 C-168.306381 222.20880703 -174.31581657 176.57639553 -165 133 C-164.85046875 132.25508301 -164.7009375 131.51016602 -164.546875 130.74267578 C-155.86367232 87.87941254 -127.37226601 52.121939 -91.8125 27.9375 C-76.75007123 18.00220385 -61.27216129 11.1235788 -44 6 C-42.66919842 5.58486749 -41.33846308 5.16952251 -40.0078125 4.75390625 C-27.07807449 0.95840251 -13.45790403 -0.44124276 0 0 Z " fill="#FF9556" transform="translate(221,84)"/>
<path d="M0 0 C0.33 0.99 0.66 1.98 1 3 C2.15113281 2.95359375 3.30226562 2.9071875 4.48828125 2.859375 C43.50997937 1.77900339 81.0469116 19.57162551 109 46 C109.74894531 46.69609375 110.49789063 47.3921875 111.26953125 48.109375 C121.27936675 57.71601223 129.18010342 68.96164005 136 81 C136.32709961 81.57492188 136.65419922 82.14984375 136.99121094 82.7421875 C149.89378857 105.8031848 155.2251676 130.21500784 155.3125 156.375 C155.31511841 157.12645294 155.31773682 157.87790588 155.32043457 158.65213013 C155.33401417 195.09927821 155.33401417 195.09927821 145.50390625 206.77734375 C144 208 144 208 142 208 C142 208.66 142 209.32 142 210 C141.34 210 140.68 210 140 210 C137.58146067 205.68117978 137.58146067 205.68117978 137 203 C138.67025759 199.38110854 139.91343581 197.50352975 143.5625 195.8125 C147.7573296 192.69326773 148.02635765 187.94123491 149 183 C149.20625 182.03578125 149.4125 181.0715625 149.625 180.078125 C156.36021544 142.47317215 146.31960265 102.10124022 124.80859375 70.8125 C119.93596843 64.1687813 114.66156123 57.98025839 109 52 C108.18015625 51.11570313 107.3603125 50.23140625 106.515625 49.3203125 C78.7898541 20.36410798 41.03457467 8.89384594 2 6 C1.67 7.32 1.34 8.64 1 10 C0.36835938 9.90460938 -0.26328125 9.80921875 -0.9140625 9.7109375 C-8.88457204 8.72323747 -16.11970815 9.60800684 -24 11 C-24.33 11.99 -24.66 12.98 -25 14 C-26.65614657 14.38218767 -28.32457024 14.71395102 -30 15 C-30.33 14.67 -30.66 14.34 -31 14 C-36.76593661 13.55532623 -41.08243756 14.75040226 -46.375 16.75 C-47.11943359 17.02440918 -47.86386719 17.29881836 -48.63085938 17.58154297 C-50.7594262 18.37394612 -52.88018656 19.18452609 -55 20 C-56.51980469 20.56847656 -56.51980469 20.56847656 -58.0703125 21.1484375 C-60.72931787 22.16570153 -60.72931787 22.16570153 -64 24 C-64.76569158 26.04907577 -64.76569158 26.04907577 -65 28 C-66.175625 27.92394531 -67.35125 27.84789063 -68.5625 27.76953125 C-73.08396669 27.78244405 -76.2507876 29.26348027 -80 31.6875 C-80.63156006 32.08106689 -81.26312012 32.47463379 -81.91381836 32.88012695 C-99.03245842 43.48825561 -99.03245842 43.48825561 -111 58.6875 C-112 61 -112 61 -114.625 62.1875 C-127.11841102 68.89692444 -138.76372455 91.6917007 -143 105 C-142.73971327 107.27338519 -142.73971327 107.27338519 -142 109 C-142.75925781 109.31710938 -143.51851562 109.63421875 -144.30078125 109.9609375 C-148.15619962 112.87342432 -148.84579595 116.10364115 -150.1875 120.625 C-150.43435547 121.39457031 -150.68121094 122.16414063 -150.93554688 122.95703125 C-162.29848327 159.13662072 -158.38978309 202.82564117 -141.04541016 236.34033203 C-140.04086698 238.23278963 -139.02128597 240.11653785 -138 242 C-137.68450195 242.60005859 -137.36900391 243.20011719 -137.04394531 243.81835938 C-132.02939645 253.34860042 -126.04222408 261.86271134 -119 270 C-118.32735107 270.82781982 -118.32735107 270.82781982 -117.64111328 271.67236328 C-113.65658409 276.20129434 -110.00008544 277.15804042 -104.125 277.875 C-103.34125 277.99101562 -102.5575 278.10703125 -101.75 278.2265625 C-99.83645332 278.50659372 -97.91853051 278.7564449 -96 279 C-96.96873047 277.59427734 -96.96873047 277.59427734 -97.95703125 276.16015625 C-100 273 -100 273 -100.6875 270.4375 C-99.71109505 266.97570063 -97.60565639 265.9594677 -94.62890625 264.11328125 C-92.83937637 263.083831 -92.83937637 263.083831 -92 261 C-88.19755772 261.26528667 -86.34109212 261.71575656 -83.375 264.1875 C-80.03605234 268.14151696 -77.36352594 272.32526373 -74.8125 276.8125 C-73.31562661 279.77275889 -73.31562661 279.77275889 -72 281 C-68.93535032 281.49648228 -65.86334082 281.90111145 -62.78515625 282.3046875 C-60 283 -60 283 -58 286 C-58.375 289.1875 -58.375 289.1875 -59 292 C-55.37802806 293.49140021 -51.72433382 294.7874262 -48 296 C-47.67 295.67 -47.34 295.34 -47 295 C-43.52743085 294.69132719 -41.6127712 294.61298661 -38.625 296.5 C-37.820625 297.2425 -37.820625 297.2425 -37 298 C-37.53115106 302.51478398 -39.36620292 305.34666857 -42 309 C-46.21912747 308.5205537 -48.79663178 307.83374881 -52 305 C-51.67 303.68 -51.34 302.36 -51 301 C-55.18703781 299.40493798 -58.52314529 298.46277744 -63 299 C-64.22655644 299.61051571 -65.4337588 300.26065841 -66.625 300.9375 C-71.13584297 303.44643785 -75.37374544 303.47973413 -80.4609375 303.53125 C-81.29882812 303.6859375 -82.13671875 303.840625 -83 304 C-84.41572707 305.932638 -84.41572707 305.932638 -85 308 C-74.08785795 314.45264642 -63.3259341 319.7780665 -51.3203125 323.92578125 C-49.52203544 324.54973859 -47.75494715 325.2629222 -46 326 C-45.505 327.485 -45.505 327.485 -45 329 C-43.700625 329.12375 -42.40125 329.2475 -41.0625 329.375 C-37.95009146 329.67141986 -35.04133431 330.24021622 -32.01953125 331.0078125 C-24.81257491 332.65319538 -17.42311931 332.42912401 -10.06640625 332.56640625 C-8.94363281 332.59605469 -7.82085937 332.62570312 -6.6640625 332.65625 C-5.13966553 332.68428711 -5.13966553 332.68428711 -3.58447266 332.71289062 C-1 333 -1 333 2 335 C2.328125 337.12890625 2.328125 337.12890625 2.25 339.5625 C2.23453125 340.36816406 2.2190625 341.17382812 2.203125 342.00390625 C2 344 2 344 1 345 C-1.74109726 345.12770009 -4.44585997 345.185221 -7.1875 345.1875 C-7.94353516 345.19974609 -8.69957031 345.21199219 -9.47851562 345.22460938 C-14.1041866 345.23664495 -17.61209227 344.5880047 -22 343 C-24.24477519 342.68881671 -26.49567142 342.41956324 -28.75 342.1875 C-34.47489504 341.44627675 -38.64902925 340.08988342 -43.5234375 337.0234375 C-46.43526182 335.8201284 -48.85746922 335.96732172 -51.96972656 336.05566406 C-68.33629567 335.60694139 -92.08133094 319.47813928 -104 309 C-105.01900391 307.40091797 -105.01900391 307.40091797 -106.05859375 305.76953125 C-108.44360679 302.36716859 -109.12283587 302.77430246 -113 302 C-115.51989886 300.03879432 -117.67600151 297.74671506 -119.875 295.4375 C-120.49487793 294.79925293 -121.11475586 294.16100586 -121.75341797 293.50341797 C-123.51454915 291.68020008 -125.25932454 289.842726 -127 288 C-127.76828125 287.19949219 -128.5365625 286.39898437 -129.328125 285.57421875 C-134.05733699 280.44405183 -136.74606721 275.09134298 -139.3515625 268.66796875 C-140.647106 265.63847047 -142.22425599 262.89690558 -144.0065918 260.11987305 C-168.306381 222.20880703 -174.31581657 176.57639553 -165 133 C-164.85046875 132.25508301 -164.7009375 131.51016602 -164.546875 130.74267578 C-155.86367232 87.87941254 -127.37226601 52.121939 -91.8125 27.9375 C-76.75007123 18.00220385 -61.27216129 11.1235788 -44 6 C-42.66919842 5.58486749 -41.33846308 5.16952251 -40.0078125 4.75390625 C-27.07807449 0.95840251 -13.45790403 -0.44124276 0 0 Z " fill="#FF9758" transform="translate(221,84)"/>
<path d="M0 0 C3 1 3 1 4.6875 4.0625 C6.47988369 8.72460439 7.12504062 13.23703259 5.203125 17.95703125 C3.86581057 20.40020184 2.52871703 22.55213048 0.390625 24.36328125 C-2.09460891 27.28831779 -1.45555129 30.65674859 -1.36328125 34.328125 C-0.88202591 37.86768042 0.34058493 39.65345729 3 42 C5.98923764 43.49461882 9.12742801 43.35691758 12.4140625 43.53515625 C13.14370209 43.57813339 13.87334167 43.62111053 14.62509155 43.66539001 C16.95817748 43.80186566 19.29155895 43.93225139 21.625 44.0625 C23.20575238 44.15389635 24.78648193 44.24568826 26.3671875 44.33789062 C30.2445417 44.56318659 34.12217185 44.78302102 38 45 C39.65 42.03 41.3 39.06 43 36 C48.07583846 37.01516769 48.86875402 37.37009612 52.1875 40.875 C52.86167969 41.57367188 53.53585938 42.27234375 54.23046875 42.9921875 C56 45 56 45 58 48 C60.32810596 48.98113869 60.32810596 48.98113869 63.1015625 49.6484375 C64.1419165 49.92888916 65.18227051 50.20934082 66.25415039 50.49829102 C67.36653076 50.78760498 68.47891113 51.07691895 69.625 51.375 C71.90791168 51.99477072 74.19046436 52.61586528 76.47265625 53.23828125 C77.58914551 53.53943848 78.70563477 53.8405957 79.85595703 54.15087891 C103.3264095 60.48961424 103.3264095 60.48961424 109 69 C108.91015625 71.078125 108.91015625 71.078125 108 73 C105.93359375 74.046875 105.93359375 74.046875 103.4375 74.75 C102.61121094 74.99234375 101.78492188 75.2346875 100.93359375 75.484375 C100.29550781 75.65453125 99.65742188 75.8246875 99 76 C101.97 76.495 101.97 76.495 105 77 C104.77079658 80.09424619 103.8513222 81.15671444 101.6875 83.4375 C91.30521195 91.29698909 79.61504758 92.03848547 67.07788086 92.78222656 C64.80616595 92.94482272 64.80616595 92.94482272 62 94 C49.32894304 95.01936202 37.52346488 94.96006079 25.6875 90.171875 C20.4111403 88.49506577 15.28856644 88.35963378 9.78173828 88.27758789 C4.29973558 88.18282705 -0.69148166 87.37392319 -6 86 C-5.51675181 80.84535266 -2.81389239 77.18449681 0 73 C-1.22154214 70.37315429 -1.22154214 70.37315429 -4 68 C-6.9458732 67.32389795 -9.87281693 66.97680696 -12.87109375 66.6015625 C-17.50001773 65.71160708 -21.10492584 63.57704402 -25 61 C-24.65514457 58.1157546 -24.21744593 57.1792182 -21.93359375 55.296875 C-21.10988281 54.78640625 -20.28617188 54.2759375 -19.4375 53.75 C-18.61121094 53.22921875 -17.78492187 52.7084375 -16.93359375 52.171875 C-16.29550781 51.78515625 -15.65742187 51.3984375 -15 51 C-16.86613134 41.09812581 -16.86613134 41.09812581 -21 32 C-22.90299088 30.76036106 -24.79730843 30.00624194 -26.89453125 29.14453125 C-31.44450485 26.67116898 -34.0518852 22.70049717 -36 18 C-36.76696709 13.01029151 -36.42108079 8.01286655 -36 3 C-32 3 -32 3 -30.5078125 4.42578125 C-30.05148438 5.04839844 -29.59515625 5.67101562 -29.125 6.3125 C-25.53346169 10.75916648 -22.32356454 12.61273924 -16.625 13.5625 C-10.85570394 12.66726441 -7.06005356 9.49296336 -3.3828125 5.04296875 C-2.19903032 3.40105618 -1.09113006 1.70489071 0 0 Z " fill="#231D16" transform="translate(113,207)"/>
<path d="M0 0 C5.61 0 11.22 0 17 0 C16.34 1.32 15.68 2.64 15 4 C14.72655156 6.51269724 14.72655156 6.51269724 14.8046875 9.203125 C14.81113281 10.1828125 14.81757813 11.1625 14.82421875 12.171875 C14.84097656 13.18765625 14.85773438 14.2034375 14.875 15.25 C14.88853516 16.796875 14.88853516 16.796875 14.90234375 18.375 C14.92587862 20.91676616 14.96174869 23.45841272 15 26 C19.62 21.05 24.24 16.1 29 11 C29 14.58912412 28.33563446 15.10857029 26 17.6875 C25.1646875 18.62142578 25.1646875 18.62142578 24.3125 19.57421875 C23.6628125 20.27998047 23.6628125 20.27998047 23 21 C23.56283691 20.96334229 24.12567383 20.92668457 24.70556641 20.88891602 C40.72564801 19.98621527 50.91312321 21.69669847 63.5 32.4375 C78.0858937 46.59579421 86.97017642 67.1767224 94 86 C94.45375 85.38125 94.9075 84.7625 95.375 84.125 C97 82 97 82 99 80 C98.50724641 82.79227034 97.9929413 85.01409594 96.71484375 87.56640625 C95.63569701 92.7498488 97.69340042 96.1637614 99.9375 100.8125 C100.35773438 101.70743164 100.77796875 102.60236328 101.2109375 103.52441406 C106.04090594 113.54769963 112.08738788 121.22917839 121 128 C124.46712111 129.15570704 127.5414956 129.32835293 131.1875 129.5625 C132.45980469 129.64628906 133.73210937 129.73007812 135.04296875 129.81640625 C136.01878906 129.87699219 136.99460937 129.93757812 138 130 C138 130.66 138 131.32 138 132 C125.44577867 132.65122762 116.90532173 131.08556239 107.15234375 122.9609375 C90.97651243 108.22361024 81.75017199 85.15044716 74 65 C74 64.34 74 63.68 74 63 C73.32453125 63.2165625 72.6490625 63.433125 71.953125 63.65625 C71.06109375 63.9346875 70.1690625 64.213125 69.25 64.5 C68.36828125 64.7784375 67.4865625 65.056875 66.578125 65.34375 C64 66 64 66 60 66 C60.01949251 70.30593425 60.07142282 74.60992867 60.15258789 78.91503906 C60.17569115 80.37749182 60.19014558 81.84010915 60.19555664 83.30273438 C60.20490398 85.41379424 60.24600821 87.52229366 60.29296875 89.6328125 C60.31653442 91.53377686 60.31653442 91.53377686 60.34057617 93.47314453 C61.19225191 98.02823808 62.81802226 99.70952058 66 103 C61.05 103 56.1 103 51 103 C52.65 101.68 54.3 100.36 56 99 C57.4764236 96.0471528 57.22272939 93.31551017 57.31640625 90.0234375 C57.33718735 89.33819 57.35796844 88.6529425 57.37937927 87.94692993 C57.44480185 85.75638931 57.50372554 83.56572811 57.5625 81.375 C57.60569218 79.8906125 57.6493067 78.40623722 57.69335938 76.921875 C57.80047553 73.28137916 57.90176362 69.64074749 58 66 C57.32815674 65.95174072 56.65631348 65.90348145 55.96411133 65.85375977 C55.0748999 65.77955811 54.18568848 65.70535645 53.26953125 65.62890625 C52.39143799 65.56002197 51.51334473 65.4911377 50.60864258 65.42016602 C45.65618715 64.62248929 41.78323728 62.25608024 38.67138672 58.3190918 C35.36034243 53.06872157 33.31659767 47.77315597 31.4375 41.875 C29.56254988 36.01958732 27.84638092 30.86021573 24 26 C21.57589864 24.68098409 21.57589864 24.68098409 19 25 C16.69418848 26.42682093 16.69418848 26.42682093 15 29 C14.65387497 31.98019513 14.5294232 34.53711928 14.625 37.5 C14.62693359 38.63888672 14.62693359 38.63888672 14.62890625 39.80078125 C14.69436891 43.95402311 15.10533968 46.21067936 17 50 C11.39 50 5.78 50 0 50 C0.99 48.35 1.98 46.7 3 45 C3.44240922 42.87929863 3.44240922 42.87929863 3.38818359 40.73217773 C3.39764008 39.92461533 3.40709656 39.11705292 3.4168396 38.28501892 C3.41076691 37.42654861 3.40469421 36.56807831 3.3984375 35.68359375 C3.40130768 34.79011734 3.40417786 33.89664093 3.40713501 32.97608948 C3.40917143 31.092533 3.40367113 29.20895517 3.39111328 27.32543945 C3.37503455 24.44369267 3.39098585 21.56334433 3.41015625 18.68164062 C3.40817411 16.84895524 3.40433105 15.01627073 3.3984375 13.18359375 C3.40754654 11.89285194 3.40754654 11.89285194 3.4168396 10.57603455 C3.40265488 9.36941917 3.40265488 9.36941917 3.38818359 8.13842773 C3.38579681 7.43403061 3.38341003 6.72963348 3.38095093 6.00389099 C3.04834402 3.45329949 3.04834402 3.45329949 0 0 Z " fill="#FF9759" transform="translate(177,187)"/>
<path d="M0 0 C0.66 0 1.32 0 2 0 C4.8401533 3.37634743 7.09225154 6.52397534 6.8125 11 C6.544375 11.66 6.27625 12.32 6 13 C6.99 13.495 6.99 13.495 8 14 C8.33 13.34 8.66 12.68 9 12 C9 15.96 9 19.92 9 24 C9.66 24 10.32 24 11 24 C11.66 20.37 12.32 16.74 13 13 C17.56957231 17.56957231 18.10595757 22.63316125 18.25 28.875 C17.95898032 40.59662613 16.75141322 51.81008631 13.125 63 C12.88056152 63.77158447 12.63612305 64.54316895 12.38427734 65.33813477 C10.54267392 70.6361849 10.54267392 70.6361849 7.9140625 72.3984375 C7.28242188 72.59695313 6.65078125 72.79546875 6 73 C4.29078411 74.5412312 4.29078411 74.5412312 3 76 C4.83788592 70.40085917 6.85407523 64.87358076 8.87890625 59.33984375 C10.47006565 54.59963019 11.12962007 50.25157811 11.31640625 45.26171875 C11.35830078 44.19501953 11.40019531 43.12832031 11.44335938 42.02929688 C11.48267578 40.92650391 11.52199219 39.82371094 11.5625 38.6875 C11.62727539 37.00430664 11.62727539 37.00430664 11.69335938 35.28710938 C11.79914787 32.52485431 11.90123672 29.7625137 12 27 C11.01 27 10.02 27 9 27 C9.02356567 27.99628418 9.02356567 27.99628418 9.04760742 29.01269531 C9.51546543 51.77783709 6.06599507 69.58110108 -8 88 C-8.80244141 89.0828125 -8.80244141 89.0828125 -9.62109375 90.1875 C-15.45818629 97.41796301 -23.0472274 102.34305859 -31 107 C-31.66 107 -32.32 107 -33 107 C-33.8620148 109.58604441 -34.06783782 110.77952709 -33.25 113.4375 C-33.1675 114.283125 -33.085 115.12875 -33 116 C-35.4375 118.8125 -35.4375 118.8125 -38 121 C-34.04 119.35 -30.08 117.7 -26 116 C-27.78155733 119.56311466 -29.16763009 121.35645475 -32 124 C-27.49970405 121.81803833 -24.79884736 118.70088554 -21.6484375 114.9375 C-20.16965905 113.19940969 -18.63726481 111.58765073 -17 110 C-18.4232367 116.16735903 -22.09639313 120.21829894 -26 125 C-26.5259375 125.73347656 -27.051875 126.46695313 -27.59375 127.22265625 C-29 129 -29 129 -31.0625 129.8125 C-33 130 -33 130 -35 129 C-35 128.01 -35 127.02 -35 126 C-36.6396875 125.814375 -36.6396875 125.814375 -38.3125 125.625 C-42 125 -42 125 -45 123 C-45 122.34 -45 121.68 -45 121 C-45.53367187 121.19335938 -46.06734375 121.38671875 -46.6171875 121.5859375 C-63.62118135 127.52850974 -81.11476974 128.51674858 -97.73828125 120.71484375 C-109.85381389 113.95049505 -121.68580564 102.08331547 -127 89 C-127 88.01 -127 87.02 -127 86 C-125.68 86.33 -124.36 86.66 -123 87 C-123 87.66 -123 88.32 -123 89 C-122.01 89.33 -121.02 89.66 -120 90 C-120.28530356 87.811661 -120.57855425 85.62435747 -120.875 83.4375 C-121.03742188 82.21933594 -121.19984375 81.00117188 -121.3671875 79.74609375 C-121.91326997 76.04948834 -121.91326997 76.04948834 -122.96875 72.75 C-124.34690325 67.73853362 -124.96843593 62.71116825 -125.625 57.5625 C-125.7590625 56.54478516 -125.893125 55.52707031 -126.03125 54.47851562 C-126.35887154 51.98625178 -126.6816584 49.49346322 -127 47 C-124.14209069 47.58484642 -122.96287647 48.03028498 -120.625 49.9375 C-118.10670319 52.1590276 -118.10670319 52.1590276 -114.9375 53 C-111.64567818 54.12062019 -110.13908157 55.28501185 -108 58 C-108 58.99 -108 59.98 -108 61 C-106.02 61.33 -104.04 61.66 -102 62 C-102.26554687 62.51949219 -102.53109375 63.03898437 -102.8046875 63.57421875 C-104.70698097 67.33020694 -106.51959705 71.05225879 -108 75 C-108.66 73.68 -109.32 72.36 -110 71 C-110.66 71 -111.32 71 -112 71 C-111.71890887 72.64767247 -111.42481474 74.29313145 -111.125 75.9375 C-110.96257812 76.85402344 -110.80015625 77.77054687 -110.6328125 78.71484375 C-110.42398438 79.46894531 -110.21515625 80.22304688 -110 81 C-109.34 81.33 -108.68 81.66 -108 82 C-107.62046355 84.61759665 -107.34517358 87.18080788 -107.125 89.8125 C-106.25231926 98.60124558 -104.49897928 107.26521639 -100 115 C-97.7193293 116.21297649 -97.7193293 116.21297649 -95 117 C-93.3603125 117.556875 -93.3603125 117.556875 -91.6875 118.125 C-90.800625 118.41375 -89.91375 118.7025 -89 119 C-89.66 118.01 -90.32 117.02 -91 116 C-89.82566406 115.97421875 -88.65132813 115.9484375 -87.44140625 115.921875 C-61.51875248 115.10823238 -36.76645106 107.65914607 -18 89 C-7.24417817 77.54142502 -0.19297275 63.05056536 4 48 C4.22429687 47.22398437 4.44859375 46.44796875 4.6796875 45.6484375 C6.38939921 39.02037705 7.188307 31.564921 5 25 C4.34 25 3.68 25 3 25 C2.401875 25.928125 1.80375 26.85625 1.1875 27.8125 C-1.06489413 31.09456002 -2.38165959 32.44928268 -6 34 C-9.1875 34.3125 -9.1875 34.3125 -12 34 C-14 32 -14 32 -14.125 29 C-13.49470304 25.23378115 -11.63761114 23.11530688 -9.1875 20.25 C-3.99883039 14.16865605 -1.83821214 7.67408951 0 0 Z " fill="#FF9E64" transform="translate(350,309)"/>
<path d="M0 0 C1.34391564 4.03174691 0.07912775 6.00225581 -1.40625 9.84375 C-2.25779504 12.15451133 -2.25779504 12.15451133 -1 15 C-1.84008789 17.44116211 -1.84008789 17.44116211 -3.16015625 20.33984375 C-6.52385821 28.05766458 -9.01041306 35.99220892 -11.51757812 44.02148438 C-16.80150613 60.39698513 -24.57448267 72.62950923 -39.7265625 81.37109375 C-47.38080708 85.17994815 -56.47879386 87.89825209 -64.97265625 85.42578125 C-68.36509733 84.06448324 -71.13116972 82.22163213 -74 80 C-74.16788373 81.62487471 -74.33426787 83.24990442 -74.5 84.875 C-74.5928125 85.77992188 -74.685625 86.68484375 -74.78125 87.6171875 C-75.03047295 89.93313211 -75.03047295 89.93313211 -75 92 C-74.360625 92.103125 -73.72125 92.20625 -73.0625 92.3125 C-72.381875 92.539375 -71.70125 92.76625 -71 93 C-70.67 93.99 -70.34 94.98 -70 96 C-45.69345121 94.36831038 -25.87413849 85.52547522 -8.62890625 67.90625 C-5.96024812 64.78321602 -3.72003764 61.3801951 -1.48046875 57.94140625 C-0.99191406 57.30074219 -0.50335938 56.66007812 0 56 C0.66 56 1.32 56 2 56 C-3.53703158 71.79599873 -20.86567933 84.2466646 -35.375 91.375 C-42.65989125 94.5446931 -50.26424613 96.31183805 -58 98 C-38.84220941 99.66108011 -19.48228893 90.73469057 -5 78.625 C8.66708669 66.63109351 21.24374409 48.89753727 23.30078125 30.27734375 C23.35268795 27.91667892 23.35268795 27.91667892 23 25 C22.2575 25.474375 21.515 25.94875 20.75 26.4375 C18 28 18 28 15.96875 28.34375 C13.84135499 28.83268651 13.84135499 28.83268651 12.734375 30.84765625 C12.40953125 31.57855469 12.0846875 32.30945313 11.75 33.0625 C11.41484375 33.79597656 11.0796875 34.52945313 10.734375 35.28515625 C10.37085938 36.13400391 10.37085938 36.13400391 10 37 C7 36 7 36 5.83203125 34.2890625 C4.83447338 31.54460751 4.6992943 29.29212376 4.6875 26.375 C4.66236328 24.93253906 4.66236328 24.93253906 4.63671875 23.4609375 C4.75660156 22.64882813 4.87648438 21.83671875 5 21 C5.99 20.34 6.98 19.68 8 19 C8.99 22.465 8.99 22.465 10 26 C14.67259219 26.3259948 17.29277083 25.92675987 21 23 C23.29582863 19.93282876 23.29582863 19.93282876 25 17 C26.485 17.495 26.485 17.495 28 18 C32.36682914 31.10048741 26.05704676 47.69678179 20.1875 59.5 C16.74407295 66.13000363 12.68609466 72.17585378 8 78 C7.47148437 78.69222656 6.94296875 79.38445312 6.3984375 80.09765625 C-5.33371852 94.63281506 -22.29942775 102.37636767 -40 107 C-40.79148437 107.21398437 -41.58296875 107.42796875 -42.3984375 107.6484375 C-50.75781894 109.61702903 -59.45263896 109.64618767 -68 110 C-67.34 110.99 -66.68 111.98 -66 113 C-70.48687418 112.45613646 -74.49934318 110.85847817 -78 108 C-85.20773505 98.62044271 -86.77286739 86.52860518 -86 75 C-86.99 74.67 -87.98 74.34 -89 74 C-89.33 70.7 -89.66 67.4 -90 64 C-89.34 64 -88.68 64 -88 64 C-87.34 64.66 -86.68 65.32 -86 66 C-85.72285156 65.36191406 -85.44570312 64.72382813 -85.16015625 64.06640625 C-84.79792969 63.24011719 -84.43570313 62.41382813 -84.0625 61.5625 C-83.70285156 60.73878906 -83.34320313 59.91507812 -82.97265625 59.06640625 C-82 57 -82 57 -81 56 C-82.65 55.34 -84.3 54.68 -86 54 C-86 53.34 -86 52.68 -86 52 C-84.80503906 51.94392578 -84.80503906 51.94392578 -83.5859375 51.88671875 C-75.34107128 51.48088711 -75.34107128 51.48088711 -68 48 C-66.59533047 45.94906855 -66.59533047 45.94906855 -66 44 C-65.34 44 -64.68 44 -64 44 C-64.42572054 49.96008757 -65.51009149 55.58708031 -66.9375 61.375 C-67.10733398 62.07689453 -67.27716797 62.77878906 -67.45214844 63.50195312 C-68.28833434 66.79891469 -69.09405801 69.14108702 -71 72 C-71.66743877 74.41344667 -71.66743877 74.41344667 -71 77 C-68.46609346 79.42373669 -66.1435759 81.42821205 -63 83 C-63 82.34 -63 81.68 -63 81 C-64.485 80.505 -64.485 80.505 -66 80 C-66.33 78.35 -66.66 76.7 -67 75 C-66.38592285 75.01571045 -65.7718457 75.0314209 -65.13916016 75.04760742 C-62.30120411 75.11076194 -59.46339667 75.14924177 -56.625 75.1875 C-55.65949219 75.21263672 -54.69398438 75.23777344 -53.69921875 75.26367188 C-46.9430221 75.33168728 -41.3447538 74.2871055 -35 72 C-33.948125 71.649375 -32.89625 71.29875 -31.8125 70.9375 C-20.22161349 62.95266707 -15.18276203 45.78622711 -11.99047852 32.72143555 C-10.24720369 25.66390415 -8.09593462 18.77553431 -5.8125 11.875 C-5.46711182 10.81289307 -5.12172363 9.75078613 -4.76586914 8.65649414 C-4.43707764 7.67414795 -4.10828613 6.69180176 -3.76953125 5.6796875 C-3.47667236 4.80038574 -3.18381348 3.92108398 -2.88208008 3.01513672 C-2 1 -2 1 0 0 Z " fill="#FF9555" transform="translate(328,316)"/>
<path d="M0 0 C3.80244228 0.26528667 5.65890788 0.71575656 8.625 3.1875 C11.96394766 7.14151696 14.63647406 11.32526373 17.1875 15.8125 C18.68437339 18.77275889 18.68437339 18.77275889 20 20 C23.06464968 20.49648228 26.13665918 20.90111145 29.21484375 21.3046875 C32 22 32 22 34 25 C33.625 28.1875 33.625 28.1875 33 31 C36.62197194 32.49140021 40.27566618 33.7874262 44 35 C44.33 34.67 44.66 34.34 45 34 C48.47256915 33.69132719 50.3872288 33.61298661 53.375 35.5 C53.91125 35.995 54.4475 36.49 55 37 C54.46884894 41.51478398 52.63379708 44.34666857 50 48 C45.78087253 47.5205537 43.20336822 46.83374881 40 44 C40.33 42.68 40.66 41.36 41 40 C36.81296219 38.40493798 33.47685471 37.46277744 29 38 C27.77344356 38.61051571 26.5662412 39.26065841 25.375 39.9375 C20.86415703 42.44643785 16.62625456 42.47973413 11.5390625 42.53125 C10.70117188 42.6859375 9.86328125 42.840625 9 43 C7.58427293 44.932638 7.58427293 44.932638 7 47 C17.91214205 53.45264642 28.6740659 58.7780665 40.6796875 62.92578125 C42.47796456 63.54973859 44.24505285 64.2629222 46 65 C46.33 65.99 46.66 66.98 47 68 C48.9490625 68.185625 48.9490625 68.185625 50.9375 68.375 C54.04990854 68.67141986 56.95866569 69.24021622 59.98046875 70.0078125 C67.18742509 71.65319538 74.57688069 71.42912401 81.93359375 71.56640625 C83.05636719 71.59605469 84.17914063 71.62570312 85.3359375 71.65625 C86.35220215 71.67494141 87.3684668 71.69363281 88.41552734 71.71289062 C91 72 91 72 94 74 C94.328125 76.12890625 94.328125 76.12890625 94.25 78.5625 C94.23453125 79.36816406 94.2190625 80.17382812 94.203125 81.00390625 C94 83 94 83 93 84 C90.25890274 84.12770009 87.55414003 84.185221 84.8125 84.1875 C84.05646484 84.19974609 83.30042969 84.21199219 82.52148438 84.22460938 C77.8958134 84.23664495 74.38790773 83.5880047 70 82 C67.75522481 81.68881671 65.50432858 81.41956324 63.25 81.1875 C57.52510496 80.44627675 53.35097075 79.08988342 48.4765625 76.0234375 C45.56473818 74.8201284 43.14253078 74.96732172 40.03027344 75.05566406 C23.66370433 74.60694139 -0.08133094 58.47813928 -12 48 C-12.67933594 46.93394531 -13.35867187 45.86789062 -14.05859375 44.76953125 C-16.44360679 41.36716859 -17.12283587 41.77430246 -21 41 C-23.51989673 39.03879597 -25.6760105 36.74672048 -27.875 34.4375 C-28.49415283 33.79997803 -29.11330566 33.16245605 -29.7512207 32.50561523 C-31.51303948 30.68162826 -33.25847753 28.84334429 -35 27 C-35.77988281 26.18789063 -36.55976562 25.37578125 -37.36328125 24.5390625 C-40.97885587 20.62154482 -43.39515568 17.11544128 -45 12 C-44.67 11.01 -44.34 10.02 -44 9 C-44 9.66 -44 10.32 -44 11 C-43.34 11 -42.68 11 -42 11 C-42 11.66 -42 12.32 -42 13 C-41.01 12.67 -40.02 12.34 -39 12 C-38.67 11.01 -38.34 10.02 -38 9 C-34.64774911 9.28666718 -33.28389572 9.70978378 -30.89453125 12.15234375 C-30.20746094 13.07144531 -29.52039063 13.99054688 -28.8125 14.9375 C-21.51862226 24.70883752 -21.51862226 24.70883752 -12 32 C-11.87238281 32.63164062 -11.74476562 33.26328125 -11.61328125 33.9140625 C-11.18346443 36.12327228 -11.18346443 36.12327228 -9.29296875 37.3359375 C-8.59816406 37.67882812 -7.90335938 38.02171875 -7.1875 38.375 C-6.15689453 38.91253906 -6.15689453 38.91253906 -5.10546875 39.4609375 C-2.99703483 40.20889741 -2.99703483 40.20889741 -0.98828125 39.2890625 C1.03138037 38.02748858 1.03138037 38.02748858 2.890625 36.48046875 C5.44247493 34.68944815 7.73391699 34.06652075 10.75 33.3125 C12.22726563 32.93544922 12.22726563 32.93544922 13.734375 32.55078125 C14.48203125 32.36902344 15.2296875 32.18726563 16 32 C16 30.68 16 29.36 16 28 C15.31075439 27.83918945 14.62150879 27.67837891 13.91137695 27.51269531 C-8.43986242 22.27817805 -8.43986242 22.27817805 -16.9375 19.875 C-17.89527344 19.60429687 -18.85304688 19.33359375 -19.83984375 19.0546875 C-22.44785448 17.78133687 -23.02588264 16.68299752 -24 14 C-23.14277344 14.20496094 -22.28554687 14.40992188 -21.40234375 14.62109375 C-15.61596829 15.98451255 -9.90793184 17.31303118 -4 18 C-4.66 17.113125 -5.32 16.22625 -6 15.3125 C-8 12 -8 12 -8.6875 9.4375 C-7.71109505 5.97570063 -5.60565639 4.9594677 -2.62890625 3.11328125 C-0.83937637 2.083831 -0.83937637 2.083831 0 0 Z " fill="#FF9454" transform="translate(129,345)"/>
<path d="M0 0 C0.495 0.99 0.495 0.99 1 2 C0.54625 3.2375 0.0925 4.475 -0.375 5.75 C-1.84977159 9.85170849 -2.22086192 13.46291592 -2.375 17.8125 C-2.68411304 24.02836011 -4.14780467 28.70127013 -6.84375 34.28125 C-8.95384368 39.24282163 -9.17431075 44.22010009 -9.25 49.5625 C-9.27578125 50.65691406 -9.3015625 51.75132812 -9.328125 52.87890625 C-8.96026837 56.3779235 -8.1859459 58.25735292 -6 61 C-5.01 61 -4.02 61 -3 61 C-3.33 60.34 -3.66 59.68 -4 59 C-3.38125 58.7525 -2.7625 58.505 -2.125 58.25 C0.15001528 57.17603789 0.15001528 57.17603789 1 54.9375 C2 53 2 53 4.125 52.25 C4.74375 52.1675 5.3625 52.085 6 52 C4.88625 51.896875 3.7725 51.79375 2.625 51.6875 C1.42875 51.460625 0.2325 51.23375 -1 51 C-1.66 50.01 -2.32 49.02 -3 48 C-2.67 47.01 -2.34 46.02 -2 45 C-1.01 46.98 -1.01 46.98 0 49 C0.66 49 1.32 49 2 49 C2.20753906 48.45730469 2.41507812 47.91460937 2.62890625 47.35546875 C4.31321978 43.44419675 5.50795395 40.76334771 9.5625 39.0625 C11.2640625 38.5365625 11.2640625 38.5365625 13 38 C13.99 37.67 14.98 37.34 16 37 C17.32243071 52.07571004 9.19567853 67.38946449 -0.109375 78.7578125 C-0.73328125 79.49773437 -1.3571875 80.23765625 -2 81 C-2.64453125 81.80179687 -3.2890625 82.60359375 -3.953125 83.4296875 C-16.24068661 98.03823297 -35.12617813 108.89513399 -54 112 C-60.66698721 112.41326928 -67.32949867 112.24158757 -74 112 C-74 111.67 -74 111.34 -74 111 C-72.93523437 110.84144531 -71.87046875 110.68289063 -70.7734375 110.51953125 C-45.80051267 106.59517315 -26.05935865 95.81349444 -10 76 C-8.45743969 73.70011033 -7.21819893 71.49177055 -6 69 C-8.69242491 71.59877534 -11.02373675 74.24562533 -13.25 77.25 C-25.73643667 93.37172836 -43.0340524 103.85276836 -62.8125 108.6875 C-67.83557469 109.1799583 -72.98123078 109.63110272 -78 109 C-78.66 108.01 -79.32 107.02 -80 106 C-80.99 105.67 -81.98 105.34 -83 105 C-84.0070238 99.96488101 -83.97387813 96.76052962 -82 92 C-81.31164062 92.52400391 -81.31164062 92.52400391 -80.609375 93.05859375 C-79.99578125 93.51363281 -79.3821875 93.96867187 -78.75 94.4375 C-78.14671875 94.88996094 -77.5434375 95.34242188 -76.921875 95.80859375 C-71.51516556 99.16031403 -64.91174397 98.61106131 -58.91015625 97.3515625 C-45.2942578 93.56307232 -34.60082139 86.28916718 -27.23828125 74.078125 C-22.16644442 64.00538611 -18.89818068 53.14994888 -15.46313477 42.43457031 C-15.25626541 41.79340775 -15.04939606 41.15224518 -14.83625793 40.49165344 C-14.26884218 38.72821245 -13.70793937 36.96267963 -13.14746094 35.19702148 C-11.99249827 31.97909889 -10.59030655 29.023352 -9 26 C-9.66 25.67 -10.32 25.34 -11 25 C-7.85216578 16.3643486 -4.26853566 8.14102162 0 0 Z " fill="#FFFAF8" transform="translate(336,303)"/>
<path d="M0 0 C2.64 0 5.28 0 8 0 C8.01417969 0.78503906 8.02835938 1.57007813 8.04296875 2.37890625 C8.36831759 9.54537392 9.05094908 13.70566646 14 19 C17.67442709 21.49934283 21.7315618 21.48365762 26.03515625 21.74609375 C27.65617701 21.86031387 29.27718907 21.97465769 30.89819336 22.08911133 C31.74219696 22.14563873 32.58620056 22.20216614 33.45578003 22.26040649 C98.94355998 26.70946918 98.94355998 26.70946918 116 41 C116.33 41.99 116.66 42.98 117 44 C115.2097939 44.67057887 113.41778511 45.3363469 111.625 46 C110.62726563 46.37125 109.62953125 46.7425 108.6015625 47.125 C106 48 106 48 104 48 C104 49.32 104 50.64 104 52 C105.98 52.66 107.96 53.32 110 54 C109.05516204 56.35722461 108.46869236 57.71836423 106.2578125 59.046875 C99.78411576 61.18106074 93.77901373 61.30970113 87 61 C87 60.34 87 59.68 87 59 C85.515 58.505 85.515 58.505 84 58 C80.58733647 54.08175669 80.6211407 50.34003855 80.76171875 45.3828125 C81.03564109 42.64358911 81.7036038 40.43074287 83 38 C82.01 38 81.02 38 80 38 C79.505 38.99 79.505 38.99 79 40 C72.54542647 42.18894233 66.53424577 41.38533117 60.39453125 38.734375 C55.13767787 37.12215896 49.46346547 37.22252879 44 37 C44 37.66 44 38.32 44 39 C34.48358551 38.19009238 25.6585887 33.59604603 18 28 C18 27.34 18 26.68 18 26 C17.11828125 25.60748047 17.11828125 25.60748047 16.21875 25.20703125 C8.71112523 21.12277764 1.62656347 12.10528482 -1 4 C-0.60546875 1.75390625 -0.60546875 1.75390625 0 0 Z " fill="#EEA064" transform="translate(99,233)"/>
<path d="M0 0 C0.66 0 1.32 0 2 0 C4.8401533 3.37634743 7.09225154 6.52397534 6.8125 11 C6.544375 11.66 6.27625 12.32 6 13 C6.99 13.495 6.99 13.495 8 14 C8.33 13.34 8.66 12.68 9 12 C9 15.96 9 19.92 9 24 C9.66 24 10.32 24 11 24 C11.66 20.37 12.32 16.74 13 13 C17.56957231 17.56957231 18.10595757 22.63316125 18.25 28.875 C17.95898032 40.59662613 16.75141322 51.81008631 13.125 63 C12.88056152 63.77158447 12.63612305 64.54316895 12.38427734 65.33813477 C10.54267392 70.6361849 10.54267392 70.6361849 7.9140625 72.3984375 C6.96660156 72.69621094 6.96660156 72.69621094 6 73 C4.29078411 74.5412312 4.29078411 74.5412312 3 76 C4.83788592 70.40085917 6.85407523 64.87358076 8.87890625 59.33984375 C10.47006565 54.59963019 11.12962007 50.25157811 11.31640625 45.26171875 C11.35830078 44.19501953 11.40019531 43.12832031 11.44335938 42.02929688 C11.48267578 40.92650391 11.52199219 39.82371094 11.5625 38.6875 C11.62727539 37.00430664 11.62727539 37.00430664 11.69335938 35.28710938 C11.79914787 32.52485431 11.90123672 29.7625137 12 27 C11.01 27 10.02 27 9 27 C9.01571045 27.66418945 9.0314209 28.32837891 9.04760742 29.01269531 C9.51600456 51.80406978 6.04553006 69.54944508 -8 88 C-8.51175781 88.71027344 -9.02351563 89.42054688 -9.55078125 90.15234375 C-19.68106415 102.93312196 -36.13456278 110.23255407 -51 116 C-51.70334473 116.28842773 -52.40668945 116.57685547 -53.13134766 116.87402344 C-59.25772574 119.19447626 -64.87100678 119.38968308 -71.375 119.25 C-72.35855469 119.24484375 -73.34210938 119.2396875 -74.35546875 119.234375 C-81.53250972 119.15583009 -81.53250972 119.15583009 -85 118 C-84.04134491 120.33075929 -84.04134491 120.33075929 -81 122 C-87.28035136 122.54611751 -92.46034313 121.02807569 -98 118 C-98.66 117.01 -99.32 116.02 -100 115 C-99.29875 115.28875 -98.5975 115.5775 -97.875 115.875 C-94.94547497 117.02133588 -91.99078347 118.02625654 -89 119 C-89.66 118.01 -90.32 117.02 -91 116 C-89.82566406 115.97421875 -88.65132813 115.9484375 -87.44140625 115.921875 C-61.51875248 115.10823238 -36.76645106 107.65914607 -18 89 C-7.24417817 77.54142502 -0.19297275 63.05056536 4 48 C4.22429687 47.22398437 4.44859375 46.44796875 4.6796875 45.6484375 C6.38939921 39.02037705 7.188307 31.564921 5 25 C4.34 25 3.68 25 3 25 C2.401875 25.928125 1.80375 26.85625 1.1875 27.8125 C-1.06489413 31.09456002 -2.38165959 32.44928268 -6 34 C-9.1875 34.3125 -9.1875 34.3125 -12 34 C-14 32 -14 32 -14.125 29 C-13.49470304 25.23378115 -11.63761114 23.11530688 -9.1875 20.25 C-3.99883039 14.16865605 -1.83821214 7.67408951 0 0 Z " fill="#FFF8F5" transform="translate(350,309)"/>
<path d="M0 0 C1.32 0 2.64 0 4 0 C4.03963867 0.67877197 4.07927734 1.35754395 4.12011719 2.05688477 C4.92042935 15.11722763 5.7289792 27.55222227 10 40 C10.31710938 40.94697754 10.31710938 40.94697754 10.640625 41.91308594 C14.18716327 52.39290034 18.73446049 62.27844298 24 72 C24.33870117 72.6276123 24.67740234 73.25522461 25.02636719 73.90185547 C36.42464929 94.85966599 36.42464929 94.85966599 54.79296875 108.34375 C56.25428403 108.74233611 57.71941728 109.1271108 59.1875 109.5 C59.96544922 109.70939209 60.74339844 109.91878418 61.54492188 110.13452148 C65.71221999 111.23441081 69.89007745 112.20622889 74.11328125 113.06640625 C74.93223877 113.23527344 75.75119629 113.40414062 76.5949707 113.578125 C78.17223118 113.89578664 79.75287662 114.19716981 81.33666992 114.48046875 C86.67529221 115.54084289 86.67529221 115.54084289 88.5 118.12109375 C88.665 118.74113281 88.83 119.36117187 89 120 C85.78928715 123.21071285 81.47654438 123.64625557 77.1640625 124.8046875 C73.85615564 126.0543412 72.26506681 127.33324646 70 130 C61.84810127 127.96202532 61.84810127 127.96202532 59 125 C59 123.68 59 122.36 59 121 C58.46117187 120.78601563 57.92234375 120.57203125 57.3671875 120.3515625 C54.14023812 118.50911286 51.70900255 116.00346373 49.125 113.375 C48.59124756 112.83883057 48.05749512 112.30266113 47.50756836 111.75024414 C44.05948189 108.23364915 41.06669394 104.59336253 38.24609375 100.55078125 C36.52158189 98.40460191 34.40786317 97.27475109 32 96 C32 95.34 32 94.68 32 94 C31.42765625 93.80535156 30.8553125 93.61070312 30.265625 93.41015625 C27.07160665 91.42215518 25.58310654 88.62174295 23.75 85.4375 C23.16629639 84.43710693 23.16629639 84.43710693 22.57080078 83.41650391 C11.97798736 64.93387084 4.35297586 45.08351223 1 24 C0.773125 22.700625 0.54625 21.40125 0.3125 20.0625 C0.05099877 17.35782087 -0.04364876 14.68134669 -0.0546875 11.96484375 C-0.05915894 10.86740845 -0.05915894 10.86740845 -0.0637207 9.74780273 C-0.06195595 6.49818981 -0.03549123 3.24941912 0 0 Z " fill="#FFF9F7" transform="translate(58,256)"/>
<path d="M0 0 C0.7425 1.0209375 0.7425 1.0209375 1.5 2.0625 C4.68622991 5.80632014 8.23390772 8.8548405 12 12 C12.65742187 12.58007812 13.31484375 13.16015625 13.9921875 13.7578125 C23.34620376 21.62930543 34.36839718 26.2772941 46.390625 28.1015625 C49 29 49 29 50.796875 31.0859375 C52 34 52 34 53 42 C58.94 42 64.88 42 71 42 C71.020625 40.411875 71.04125 38.82375 71.0625 37.1875 C71.07410156 36.29417969 71.08570313 35.40085937 71.09765625 34.48046875 C71.11009967 31.86586209 71.11009967 31.86586209 70 29 C71.65 29 73.3 29 75 29 C75.09796875 29.72445313 75.1959375 30.44890625 75.296875 31.1953125 C76.21692754 37.14392808 77.18992735 41.3009104 81 46 C66.14844516 51.16396204 47.82207708 49.16356212 33.83984375 42.4921875 C17.27394488 33.48670518 7.33277342 19.95108662 0 3 C0 2.01 0 1.02 0 0 Z " fill="#F1A467" transform="translate(101,249)"/>
<path d="M0 0 C0.99 0 1.98 0 3 0 C3.08849232 3.77068057 3.14088454 7.54108765 3.1875 11.3125 C3.21263672 12.36501953 3.23777344 13.41753906 3.26367188 14.50195312 C3.35580284 24.48280718 0.97312909 32.98645931 -2.6875 42.1875 C-3.12449219 43.29480469 -3.56148438 44.40210938 -4.01171875 45.54296875 C-4.33785156 46.35378906 -4.66398437 47.16460937 -5 48 C-4.34 47.67 -3.68 47.34 -3 47 C-3.59409531 51.43096085 -5.25975738 54.59263915 -7.5 58.4375 C-7.85384766 59.04803223 -8.20769531 59.65856445 -8.57226562 60.28759766 C-11.4288801 65.16410371 -14.51391809 69.87338106 -17.6315918 74.58520508 C-20.9665146 79.72843556 -23.68403243 85.11424506 -26.26171875 90.67138672 C-28.04100746 94.42861336 -29.75042004 97.36013504 -33 100 C-33.66 100 -34.32 100 -35 100 C-35 100.66 -35 101.32 -35 102 C-31.37634481 100.06374203 -29.31761137 98.52392948 -27.3125 94.9375 C-26.81621094 94.06867188 -26.31992187 93.19984375 -25.80859375 92.3046875 C-24.37688307 89.68864596 -22.95436598 87.06812852 -21.53515625 84.4453125 C-21.0971167 83.64230713 -20.65907715 82.83930176 -20.20776367 82.01196289 C-19.33013648 80.39898732 -18.46154658 78.78105638 -17.6027832 77.15795898 C-13.81484786 70.17112309 -13.81484786 70.17112309 -10 68 C-10.95975523 74.07275728 -13.8588413 78.982551 -16.6875 84.375 C-17.20505859 85.39078125 -17.72261719 86.4065625 -18.25585938 87.453125 C-25.73689559 101.80031775 -25.73689559 101.80031775 -31.03466797 103.74804688 C-33.1875 104.125 -33.1875 104.125 -37 104 C-38.73828125 102.4921875 -38.73828125 102.4921875 -40 101 C-38.453125 99.824375 -38.453125 99.824375 -36.875 98.625 C-32.38212962 94.81841329 -29.76849878 90.13135671 -27 85 C-27.35191406 85.43570313 -27.70382812 85.87140625 -28.06640625 86.3203125 C-31.69911356 90.70232497 -35.57459221 94.42563217 -40 98 C-40.66 97.34 -41.32 96.68 -42 96 C-40.02 94.35 -38.04 92.7 -36 91 C-38.21674869 91.47501758 -40.03857099 92.0198699 -42.0625 93.0625 C-44 94 -44 94 -47 94 C-46 91 -46 91 -43 89 C-43.4021875 87.6696875 -43.4021875 87.6696875 -43.8125 86.3125 C-44 83 -44 83 -41.97265625 80.59375 C-38.69623594 77.73495488 -35.29957544 75.48794832 -31.625 73.1875 C-16.85503087 63.57360574 -5.72240001 46.68871593 -1.875 29.39453125 C-0.76475078 23.41414627 -0.55197272 17.44368946 -0.375 11.375 C-0.33632813 10.27542969 -0.29765625 9.17585938 -0.2578125 8.04296875 C-0.16456612 5.36213541 -0.07876733 2.6812911 0 0 Z " fill="#FF9554" transform="translate(359,336)"/>
<path d="M0 0 C3.96 0 7.92 0 12 0 C11.01 1.485 11.01 1.485 10 3 C9.6951276 5.82273365 9.6951276 5.82273365 9.74121094 9.06030273 C9.73490662 10.30847275 9.72860229 11.55664276 9.72210693 12.84263611 C9.72568712 14.20629009 9.72978918 15.56994278 9.734375 16.93359375 C9.73302758 18.33219978 9.7310864 19.73080536 9.72857666 21.12940979 C9.72562805 24.06068379 9.72991386 26.99183588 9.73925781 29.9230957 C9.75064176 33.67695309 9.7440981 37.43052415 9.73211288 41.18437099 C9.72487813 44.07288257 9.7271898 46.96132653 9.73236847 49.84984016 C9.73370105 51.23370459 9.73207097 52.6175752 9.72740936 54.00143242 C9.72231907 55.9377213 9.73145576 57.87403174 9.74121094 59.81030273 C9.74280212 60.91155991 9.74439331 62.01281708 9.74603271 63.14744568 C9.85264089 66.31550367 9.85264089 66.31550367 12 70 C6.72 70 1.44 70 -4 70 C-3.01 68.02 -2.02 66.04 -1 64 C-0.57368214 61.1390706 -0.57368214 61.1390706 -0.65942383 58.17822266 C-0.65976372 56.49715927 -0.65976372 56.49715927 -0.66011047 54.78213501 C-0.67559433 53.58817108 -0.69107819 52.39420715 -0.70703125 51.1640625 C-0.71127609 49.92957367 -0.71552094 48.69508484 -0.71989441 47.42318726 C-0.73665269 43.49023394 -0.77430117 39.55779779 -0.8125 35.625 C-0.8292426 32.95443458 -0.84123817 30.28387401 -0.85351562 27.61328125 C-0.88399163 21.07516252 -0.94272217 14.53815843 -1 8 C-5.29 17.24 -9.58 26.48 -14 36 C-15.4018238 31.7945286 -13.61093216 29.29172177 -11.81640625 25.48828125 C-11.48205063 24.76005661 -11.14769501 24.03183197 -10.8032074 23.28153992 C-9.732081 20.95419367 -8.64750704 18.63340275 -7.5625 16.3125 C-6.83439279 14.73674075 -6.10716795 13.16057347 -5.38085938 11.58398438 C-3.59744789 7.71784522 -1.80195006 3.8575313 0 0 Z " fill="#FF9555" transform="translate(296,220)"/>
<path d="M0 0 C7.2109089 0.12969261 12.68152818 2.52471977 18.625 6.5 C19.32496094 6.91886475 20.02492187 7.33772949 20.74609375 7.76928711 C24.44168241 10.35333754 26.35946872 12.17203865 27.26269531 16.68920898 C27.41261147 20.46898291 27.32330199 24.16022845 27.125 27.9375 C27.08890625 29.24138672 27.0528125 30.54527344 27.015625 31.88867188 C26.92165243 35.09548584 26.79038988 38.2962071 26.625 41.5 C16.4600808 37.97339538 11.78500796 30.71186201 6.6875 21.625 C2.59064969 14.53876554 -1.4124425 8.18196656 -7.375 2.5 C-4.79389374 -0.08110626 -3.60090373 0.11341429 0 0 Z " fill="#FFFCFB" transform="translate(208.375,208.5)"/>
<path d="M0 0 C20.6702457 4.68809696 20.6702457 4.68809696 25 10 C25 10.66 25 11.32 25 12 C23.2097939 12.67057887 21.41778511 13.3363469 19.625 14 C18.62726563 14.37125 17.62953125 14.7425 16.6015625 15.125 C14 16 14 16 12 16 C12 17.32 12 18.64 12 20 C13.98 20.66 15.96 21.32 18 22 C17.05516204 24.35722461 16.46869236 25.71836423 14.2578125 27.046875 C7.78411576 29.18106074 1.77901373 29.30970113 -5 29 C-5 28.34 -5 27.68 -5 27 C-5.99 26.67 -6.98 26.34 -8 26 C-10.24344658 23.19569178 -11 21.61596102 -11 18 C-9.74742108 14.24226324 -7.91481378 12.64366832 -5 10 C-4.401875 9.071875 -3.80375 8.14375 -3.1875 7.1875 C-1 5 -1 5 1.02734375 4.6875 C3.0209524 4.6875 5.01327776 4.83443981 7 5 C3.535 3.02 3.535 3.02 0 1 C0 0.67 0 0.34 0 0 Z " fill="#EFA165" transform="translate(191,265)"/>
<path d="M0 0 C2.84170331 0.42099308 4.1057448 1.08626549 6.375 2.9375 C8.89329681 5.1590276 8.89329681 5.1590276 12.0625 6 C15.35432182 7.12062019 16.86091843 8.28501185 19 11 C19 11.99 19 12.98 19 14 C21.97 14.495 21.97 14.495 25 15 C24.73445313 15.51949219 24.46890625 16.03898437 24.1953125 16.57421875 C22.29301903 20.33020694 20.48040295 24.05225879 19 28 C18.34 26.68 17.68 25.36 17 24 C16.34 24 15.68 24 15 24 C15.28109113 25.64767247 15.57518526 27.29313145 15.875 28.9375 C16.11863281 30.31228516 16.11863281 30.31228516 16.3671875 31.71484375 C16.57601562 32.46894531 16.78484375 33.22304688 17 34 C17.66 34.33 18.32 34.66 19 35 C19.37953645 37.61759665 19.65482642 40.18080788 19.875 42.8125 C20.76591224 51.78485457 22.80033284 59.95688744 27 68 C22.0765408 65.84663993 20.06110712 62.90377499 18 58 C17.12275412 54.49368559 16.51754097 50.94641081 15.98803711 47.37255859 C15.71464453 45.57231442 15.36356893 43.78421978 15 42 C14.34 41.67 13.68 41.34 13 41 C13 43.31 13 45.62 13 48 C8.44179998 41.16269997 7.67105695 32.05268337 7 24 C6.34 24 5.68 24 5 24 C4.67 24.66 4.34 25.32 4 26 C3.32920305 22.22988923 2.66407197 18.45880064 2 14.6875 C1.80921875 13.61564453 1.6184375 12.54378906 1.421875 11.43945312 C1.15117187 9.89741211 1.15117187 9.89741211 0.875 8.32421875 C0.70742187 7.37635498 0.53984375 6.42849121 0.3671875 5.4519043 C0 3 0 3 0 0 Z " fill="#FF975A" transform="translate(223,356)"/>
<path d="M0 0 C5.61 0 11.22 0 17 0 C16.34 1.32 15.68 2.64 15 4 C14.72655156 6.51269724 14.72655156 6.51269724 14.8046875 9.203125 C14.81113281 10.1828125 14.81757813 11.1625 14.82421875 12.171875 C14.84097656 13.18765625 14.85773438 14.2034375 14.875 15.25 C14.88853516 16.796875 14.88853516 16.796875 14.90234375 18.375 C14.92587989 20.91690287 14.95875977 23.4583328 15 26 C17.31 24.02 19.62 22.04 22 20 C22.33 20.99 22.66 21.98 23 23 C22.236875 23.433125 21.47375 23.86625 20.6875 24.3125 C17.43259455 26.25236878 17.43259455 26.25236878 15 29 C14.72800232 31.89838392 14.62681959 34.54668547 14.6875 37.4375 C14.68427734 38.20126953 14.68105469 38.96503906 14.67773438 39.75195312 C14.71913448 44.07638269 14.97007577 45.94015154 17 50 C11.39 50 5.78 50 0 50 C0.99 48.35 1.98 46.7 3 45 C3.44240922 42.87929863 3.44240922 42.87929863 3.38818359 40.73217773 C3.39764008 39.92461533 3.40709656 39.11705292 3.4168396 38.28501892 C3.41076691 37.42654861 3.40469421 36.56807831 3.3984375 35.68359375 C3.40130768 34.79011734 3.40417786 33.89664093 3.40713501 32.97608948 C3.40917143 31.092533 3.40367113 29.20895517 3.39111328 27.32543945 C3.37503455 24.44369267 3.39098585 21.56334433 3.41015625 18.68164062 C3.40817411 16.84895524 3.40433105 15.01627073 3.3984375 13.18359375 C3.40754654 11.89285194 3.40754654 11.89285194 3.4168396 10.57603455 C3.40265488 9.36941917 3.40265488 9.36941917 3.38818359 8.13842773 C3.38579681 7.43403061 3.38341003 6.72963348 3.38095093 6.00389099 C3.04834402 3.45329949 3.04834402 3.45329949 0 0 Z " fill="#FF914E" transform="translate(177,187)"/>
<path d="M0 0 C5.61 0 11.22 0 17 0 C16.34 1.32 15.68 2.64 15 4 C14.72655156 6.51269724 14.72655156 6.51269724 14.8046875 9.203125 C14.81113281 10.1828125 14.81757813 11.1625 14.82421875 12.171875 C14.84097656 13.18765625 14.85773438 14.2034375 14.875 15.25 C14.88853516 16.796875 14.88853516 16.796875 14.90234375 18.375 C14.92587989 20.91690287 14.95875977 23.4583328 15 26 C17.31 24.02 19.62 22.04 22 20 C22 20.99 22 21.98 22 23 C20.85991188 23.75036412 19.68705557 24.45139307 18.5 25.125 C16.33082432 26.84281185 15.17033365 28.12203863 14.63623047 30.875 C14.1091534 37.50626025 13.99199406 43.98398813 17 50 C11.39 50 5.78 50 0 50 C0.99 48.35 1.98 46.7 3 45 C3.44240922 42.87929863 3.44240922 42.87929863 3.38818359 40.73217773 C3.39764008 39.92461533 3.40709656 39.11705292 3.4168396 38.28501892 C3.41076691 37.42654861 3.40469421 36.56807831 3.3984375 35.68359375 C3.40130768 34.79011734 3.40417786 33.89664093 3.40713501 32.97608948 C3.40917143 31.092533 3.40367113 29.20895517 3.39111328 27.32543945 C3.37503455 24.44369267 3.39098585 21.56334433 3.41015625 18.68164062 C3.40817411 16.84895524 3.40433105 15.01627073 3.3984375 13.18359375 C3.40754654 11.89285194 3.40754654 11.89285194 3.4168396 10.57603455 C3.40265488 9.36941917 3.40265488 9.36941917 3.38818359 8.13842773 C3.38579681 7.43403061 3.38341003 6.72963348 3.38095093 6.00389099 C3.04834402 3.45329949 3.04834402 3.45329949 0 0 Z " fill="#FF914E" transform="translate(127,187)"/>
<path d="M0 0 C6.5875782 5.98870746 11.13348403 13.35870572 15.375 21.125 C19.23749029 27.86048868 23.96272033 33.10495036 31.0625 36.4375 C34.70503738 37.13500716 38.31015913 37.61829232 42 38 C38.91190305 39.76462683 37.76687864 40 34 40 C34.01949251 44.30593425 34.07142282 48.60992867 34.15258789 52.91503906 C34.17569115 54.37749182 34.19014558 55.84010915 34.19555664 57.30273438 C34.20490398 59.41379424 34.24600821 61.52229366 34.29296875 63.6328125 C34.31653442 65.53377686 34.31653442 65.53377686 34.34057617 67.47314453 C35.19225191 72.02823808 36.81802226 73.70952058 40 77 C35.05 77 30.1 77 25 77 C26.65 75.68 28.3 74.36 30 73 C31.4764236 70.0471528 31.22272939 67.31551017 31.31640625 64.0234375 C31.33718735 63.33819 31.35796844 62.6529425 31.37937927 61.94692993 C31.44480185 59.75638931 31.50372554 57.56572811 31.5625 55.375 C31.60569218 53.8906125 31.6493067 52.40623722 31.69335938 50.921875 C31.80047553 47.28137916 31.90176362 43.64074749 32 40 C31.32815674 39.95174072 30.65631348 39.90348145 29.96411133 39.85375977 C29.0748999 39.77955811 28.18568848 39.70535645 27.26953125 39.62890625 C26.39143799 39.56002197 25.51334473 39.4911377 24.60864258 39.42016602 C19.65942289 38.62301046 15.78015324 36.25965248 12.67578125 32.3190918 C9.37397175 27.06814518 7.24705378 21.75357571 5.3125 15.875 C5.01794922 15.00746094 4.72339844 14.13992187 4.41992188 13.24609375 C3.60304019 10.83399818 2.79915682 8.4180157 2 6 C1.60167969 4.80632812 1.20335937 3.61265625 0.79296875 2.3828125 C0.53128906 1.59648437 0.26960937 0.81015625 0 0 Z " fill="#FF9453" transform="translate(203,213)"/>
<path d="M0 0 C0.66 0 1.32 0 2 0 C3.77149249 6.9796804 5.47512736 13.96212627 7 21 C7.33 19.68 7.66 18.36 8 17 C8.99 17.33 9.98 17.66 11 18 C11.15855469 19.0621875 11.31710938 20.124375 11.48046875 21.21875 C13.39036498 33.90223928 13.39036498 33.90223928 21.11328125 43.734375 C25.19325091 46.61435359 29.1230329 48.74949562 34 50 C33.67 50.99 33.34 51.98 33 53 C25.51538591 50.48429464 19.99836985 47.08508422 14 42 C13.41734375 41.57332031 12.8346875 41.14664063 12.234375 40.70703125 C5.26818172 35.41728168 -1.7432495 26.09689352 -5 18 C-5 17.01 -5 16.02 -5 15 C-3.68 15.33 -2.36 15.66 -1 16 C-1 16.66 -1 17.32 -1 18 C-0.01 18.33 0.98 18.66 2 19 C1.855625 18.04738281 1.71125 17.09476562 1.5625 16.11328125 C1.376875 14.85902344 1.19125 13.60476563 1 12.3125 C0.814375 11.07113281 0.62875 9.82976562 0.4375 8.55078125 C0.07899589 5.64113629 -0.08942256 2.92299978 0 0 Z " fill="#FF9758" transform="translate(228,380)"/>
<path d="M0 0 C7.93266329 3.55424524 11.80683569 11.18328614 15.9375 18.4375 C23.14267468 31.10335633 23.14267468 31.10335633 35 39 C37.80798688 39.33092153 40.55290328 39.28701336 43.375 39.1875 C44.11105469 39.17396484 44.84710938 39.16042969 45.60546875 39.14648438 C47.40396743 39.11144869 49.20208422 39.05765288 51 39 C50 41 50 41 46.6875 42.125 C38.18827344 44.03236682 29.81767427 43.97741323 22 40 C14.2347896 33.47016398 11.65231727 25.68299426 8.64453125 16.34375 C6.9640848 11.29480681 5.17850751 7.27274779 2 3 C1.34 2.01 0.68 1.02 0 0 Z " fill="#FF9657" transform="translate(149,210)"/>
<path d="M0 0 C0.99 0.33 1.98 0.66 3 1 C3.31050232 4.88127905 3.11001425 7.68732791 1.8125 11.375 C-2.163831 15.08624227 -5.61468047 14.63797238 -10.90625 14.6015625 C-14.65855152 15.08481345 -15.54503671 16.24762926 -18 19 C-20.875 19.1875 -20.875 19.1875 -24 18 C-27.45708235 14.85421891 -30.14844255 11.3001124 -32 7 C-32.125 4.25 -32.125 4.25 -32 2 C-29 3 -29 3 -27.1875 4.9375 C-23.68268924 8.24203586 -20.26836446 8.86163297 -15.5625 9.375 C-11.01161345 8.89595931 -8.84027431 7.4635722 -5 5 C-4.21625 4.649375 -3.4325 4.29875 -2.625 3.9375 C-0.64235617 3.03325133 -0.64235617 3.03325133 0 0 Z " fill="#CD8556" transform="translate(112,215)"/>
<path d="M0 0 C4.04248619 4.40998494 4.91741532 9.68762895 5.125 15.5 C5.08375 16.325 5.0425 17.15 5 18 C5.99 18 6.98 18 8 18 C8.06058594 18.62648438 8.12117187 19.25296875 8.18359375 19.8984375 C8.26738281 20.71570313 8.35117188 21.53296875 8.4375 22.375 C8.51871094 23.18710937 8.59992188 23.99921875 8.68359375 24.8359375 C8.89090114 27.04272805 8.89090114 27.04272805 10 29 C10.66 29 11.32 29 12 29 C11.67 27.35 11.34 25.7 11 24 C12.9375 25.00390625 12.9375 25.00390625 15 27 C15.52283875 29.73005006 15.82701612 32.18567487 16 34.9375 C16.79339149 43.8965301 18.81004158 51.97548143 23 60 C18.0765408 57.84663993 16.06110712 54.90377499 14 50 C13.12275412 46.49368559 12.51754097 42.94641081 11.98803711 39.37255859 C11.71464453 37.57231442 11.36356893 35.78421978 11 34 C10.34 33.67 9.68 33.34 9 33 C9 35.31 9 37.62 9 40 C4.17333476 32.76000215 3.4446824 22.44476979 1.8125 14 C1.54397217 12.61965576 1.54397217 12.61965576 1.27001953 11.21142578 C1.1048584 10.33728027 0.93969727 9.46313477 0.76953125 8.5625 C0.62104736 7.78003906 0.47256348 6.99757813 0.31958008 6.19140625 C0 4 0 4 0 0 Z " fill="#FFF3EE" transform="translate(227,364)"/>
<path d="M0 0 C0.66 0 1.32 0 2 0 C2 0.99 2 1.98 2 3 C2.99 3 3.98 3 5 3 C5.33 3.66 5.66 4.32 6 5 C8.31 5 10.62 5 13 5 C13 4.34 13 3.68 13 3 C13.66 3 14.32 3 15 3 C15 2.01 15 1.02 15 0 C15.99 0 16.98 0 18 0 C18 1.65 18 3.3 18 5 C17.01 5.33 16.02 5.66 15 6 C15.33 6.66 15.66 7.32 16 8 C16.99 8.2165625 16.99 8.2165625 18 8.4375 C18.66 8.623125 19.32 8.80875 20 9 C20.33 9.99 20.66 10.98 21 12 C20.34 12 19.68 12 19 12 C18.67 12.66 18.34 13.32 18 14 C17.34 13.67 16.68 13.34 16 13 C16.33 14.32 16.66 15.64 17 17 C12.05 16.67 7.1 16.34 2 16 C2.33 15.01 2.66 14.02 3 13 C1.68 13.33 0.36 13.66 -1 14 C-1 12.33333333 -1 10.66666667 -1 9 C-0.01 8.67 0.98 8.34 2 8 C2.33 7.34 2.66 6.68 3 6 C1.68 5.34 0.36 4.68 -1 4 C-0.67 2.68 -0.34 1.36 0 0 Z " fill="#FD664F" transform="translate(291,293)"/>
<path d="M0 0 C0.12117188 0.80824219 0.24234375 1.61648438 0.3671875 2.44921875 C0.53476562 3.51785156 0.70234375 4.58648437 0.875 5.6875 C1.03742188 6.74324219 1.19984375 7.79898437 1.3671875 8.88671875 C1.98212978 12.38792228 1.98212978 12.38792228 4 17 C7.63 17.33 11.26 17.66 15 18 C11 20 11 20 8.9375 20.3125 C6.05520413 21.33525015 5.43092629 23.39831584 4 26 C3.34 26.33 2.68 26.66 2 27 C2.99 27.99 3.98 28.98 5 30 C-0.4852071 29.39053254 -0.4852071 29.39053254 -2.8125 27.625 C-6.75797329 22.22593129 -5.46444466 13.45700047 -4.62109375 7.1796875 C-4.125 4.75 -4.125 4.75 -3 1 C-1 0 -1 0 0 0 Z " fill="#FF9555" transform="translate(331,336)"/>
<path d="M0 0 C2.99991936 2.99991936 4.52118045 4.53651171 6.359375 8.0390625 C6.75253906 8.78414062 7.14570313 9.52921875 7.55078125 10.296875 C7.94652344 11.06515625 8.34226563 11.8334375 8.75 12.625 C9.16121094 13.40101563 9.57242188 14.17703125 9.99609375 14.9765625 C13 20.72490137 13 20.72490137 13 23 C11 24 11 24 0 24 C0 16.08 0 8.16 0 0 Z " fill="#FFFCFB" transform="translate(237,226)"/>
<path d="M0 0 C0.66 0 1.32 0 2 0 C1.38627128 5.28220446 0.16376034 10.06450621 -1.4375 15.125 C-3.63943048 22.37735902 -5.13103844 29.4577511 -6 37 C-6.08878418 37.76151367 -6.17756836 38.52302734 -6.26904297 39.30761719 C-6.87524223 44.53544691 -7.44783739 49.76620331 -8 55 C-8.99 55 -9.98 55 -11 55 C-12.57019338 37.44872735 -7.89211238 15.78422477 0 0 Z " fill="#FFF4EF" transform="translate(69,194)"/>
<path d="M0 0 C0.66 0.66 1.32 1.32 2 2 C1.443125 2.64324219 0.88625 3.28648437 0.3125 3.94921875 C-10.00169438 16.16247932 -17.35206303 30.03624623 -25 44 C-25.99 44 -26.98 44 -28 44 C-27.43507198 40.53684405 -26.59657651 37.88498971 -24.84765625 34.84765625 C-24.40574951 34.07768311 -23.96384277 33.30770996 -23.50854492 32.5144043 C-23.0313501 31.70527588 -22.55415527 30.89614746 -22.0625 30.0625 C-21.57177002 29.22436768 -21.08104004 28.38623535 -20.57543945 27.52270508 C-14.6469048 17.53585099 -8.38813603 8.09763782 0 0 Z " fill="#FFF1EB" transform="translate(101,143)"/>
<path d="M0 0 C0.99 0 1.98 0 3 0 C3.08849232 3.77068057 3.14088454 7.54108765 3.1875 11.3125 C3.22520508 12.8912793 3.22520508 12.8912793 3.26367188 14.50195312 C3.33130428 21.8287971 2.32467516 28.06056195 0 35 C-0.25644287 35.77287354 -0.51288574 36.54574707 -0.77709961 37.34204102 C-1.50473604 39.45089776 -2.27347912 41.53843328 -3.0625 43.625 C-3.44631836 44.68267578 -3.44631836 44.68267578 -3.83789062 45.76171875 C-5.7550941 50.87754705 -5.7550941 50.87754705 -8 52 C-9.04396626 48.73534249 -9.10322081 47.26879685 -7.85546875 44.01953125 C-7.30503906 42.96121094 -6.75460937 41.90289062 -6.1875 40.8125 C-1.26097093 31.3222029 -0.68214174 21.90740222 -0.375 11.375 C-0.33632813 10.27542969 -0.29765625 9.17585938 -0.2578125 8.04296875 C-0.16456612 5.36213541 -0.07876733 2.6812911 0 0 Z " fill="#FF995D" transform="translate(359,336)"/>
<path d="M0 0 C2.64 0 5.28 0 8 0 C8.01417969 0.78503906 8.02835938 1.57007813 8.04296875 2.37890625 C8.36831759 9.54537392 9.05094908 13.70566646 14 19 C17.19531518 21.01518797 20.0133819 21.35809871 23.75 21.625 C24.73484375 21.69976562 25.7196875 21.77453125 26.734375 21.8515625 C27.48203125 21.90054688 28.2296875 21.94953125 29 22 C29 22.33 29 22.66 29 23 C15.85736648 25.01283576 15.85736648 25.01283576 11.5859375 22.68359375 C9.82601934 20.88878735 8.4066629 19.0799741 7 17 C6.278125 16.195625 5.55625 15.39125 4.8125 14.5625 C2.48358594 11.26989737 0.24969344 7.85641594 -1 4 C-0.60546875 1.75390625 -0.60546875 1.75390625 0 0 Z " fill="#C78253" transform="translate(99,233)"/>
<path d="M0 0 C0.495 0.99 0.495 0.99 1 2 C0.15179688 2.44988281 -0.69640625 2.89976563 -1.5703125 3.36328125 C-14.12286033 10.18170379 -24.97244547 18.67316789 -35.18212891 28.64770508 C-38.6836467 32 -38.6836467 32 -42 32 C-35.95579295 17.5464614 -13.37150844 6.71520688 0 0 Z " fill="#FFF3EE" transform="translate(148,107)"/>
<path d="M0 0 C0.66 0 1.32 0 2 0 C2.00410889 0.90766113 2.00821777 1.81532227 2.01245117 2.75048828 C2.03952653 6.13945626 2.08870578 9.52664113 2.15258789 12.91503906 C2.17569115 14.37749182 2.19014558 15.84010915 2.19555664 17.30273438 C2.20490398 19.41379424 2.24600821 21.52229366 2.29296875 23.6328125 C2.31653442 25.53377686 2.31653442 25.53377686 2.34057617 27.47314453 C3.19225191 32.02823808 4.81802226 33.70952058 8 37 C3.05 37 -1.9 37 -7 37 C-5.35 35.68 -3.7 34.36 -2 33 C-0.5235764 30.0471528 -0.77727061 27.31551017 -0.68359375 24.0234375 C-0.66281265 23.33819 -0.64203156 22.6529425 -0.62062073 21.94692993 C-0.55519815 19.75638931 -0.49627446 17.56572811 -0.4375 15.375 C-0.39430782 13.8906125 -0.3506933 12.40623722 -0.30664062 10.921875 C-0.19952447 7.28137916 -0.09823638 3.64074749 0 0 Z " fill="#FFB08A" transform="translate(235,253)"/>
<path d="M0 0 C6.48237907 0.34727031 10.89309797 1.91193129 16 6 C16.33 6.66 16.66 7.32 17 8 C15.02 8 13.04 8 11 8 C10.67 8.99 10.34 9.98 10 11 C12.31 11.33 14.62 11.66 17 12 C17 12.66 17 13.32 17 14 C13.7 14 10.4 14 7 14 C6.38125 11.8653125 6.38125 11.8653125 5.75 9.6875 C4.51095437 5.90515019 3.52090222 4.06397717 0 2 C0 1.34 0 0.68 0 0 Z " fill="#C88254" transform="translate(150,273)"/>
<path d="M0 0 C0.66 0 1.32 0 2 0 C1.85600425 8.06376209 -1.08364523 14.32721267 -4.40625 21.5234375 C-6.07542395 25.16452774 -7.10794765 28.05100529 -7.31640625 32.01171875 C-7.35830078 32.76904297 -7.40019531 33.52636719 -7.44335938 34.30664062 C-7.48267578 35.09232422 -7.52199219 35.87800781 -7.5625 36.6875 C-7.60568359 37.48478516 -7.64886719 38.28207031 -7.69335938 39.10351562 C-7.79927368 41.06881447 -7.90012551 43.03438496 -8 45 C-11.37857407 39.93213889 -10.85794486 33.90476058 -10 28 C-8.6814049 22.82173055 -6.68347106 17.87562744 -4.7265625 12.91210938 C-3.45495971 9.56560633 -2.50330842 6.13308231 -1.54296875 2.6875 C-1 1 -1 1 0 0 Z " fill="#FFE5DA" transform="translate(258,368)"/>
<path d="M0 0 C0.33 0.66 0.66 1.32 1 2 C-0.16821289 4.67041016 -0.16821289 4.67041016 -1.97265625 8.0390625 C-2.29278183 8.63874847 -2.61290741 9.23843445 -2.94273376 9.85629272 C-3.62580463 11.13106757 -4.31290828 12.40368827 -5.00366211 13.67431641 C-6.04404426 15.59099922 -7.06883009 17.51538451 -8.09179688 19.44140625 C-17.62415593 37.23680315 -17.62415593 37.23680315 -22.17211914 38.69775391 C-22.77531982 38.79749512 -23.37852051 38.89723633 -24 39 C-24 38.34 -24 37.68 -24 37 C-22.87658203 36.17242187 -22.87658203 36.17242187 -21.73046875 35.328125 C-18.46963484 32.54778593 -17.03458463 29.57054335 -15.3125 25.75 C-12.40607474 19.61246902 -9.19275473 13.80251809 -5.5625 8.0625 C-4.90664917 7.02464355 -4.90664917 7.02464355 -4.23754883 5.96582031 C-1.17872017 1.17872017 -1.17872017 1.17872017 0 0 Z " fill="#FFECE5" transform="translate(348,399)"/>
<path d="M0 0 C1.65 0 3.3 0 5 0 C5.19916016 1.13888672 5.19916016 1.13888672 5.40234375 2.30078125 C5.57894531 3.29464844 5.75554687 4.28851563 5.9375 5.3125 C6.11152344 6.29863281 6.28554687 7.28476562 6.46484375 8.30078125 C6.95746847 11.08189213 6.95746847 11.08189213 8 14 C1.56971459 15.32388229 -4.4294834 16.24794402 -11 16 C-11.33 15.34 -11.66 14.68 -12 14 C-9.00519083 13.1276588 -6.36424089 12.89170234 -3.25 12.9375 C-2.45078125 12.94652344 -1.6515625 12.95554687 -0.828125 12.96484375 C-0.22484375 12.97644531 0.3784375 12.98804688 1 13 C1.02708567 11.39592672 1.04643483 9.7917215 1.0625 8.1875 C1.07410156 7.29417969 1.08570313 6.40085937 1.09765625 5.48046875 C1.11009967 2.86586209 1.11009967 2.86586209 0 0 Z " fill="#F3A467" transform="translate(171,278)"/>
<path d="M0 0 C0.99 0.33 1.98 0.66 3 1 C2.47963877 4.85067311 1.68672299 6.31327701 -1 9 C-1 10.32 -1 11.64 -1 13 C0.32 13.66 1.64 14.32 3 15 C2.67 15.99 2.34 16.98 2 18 C-0.6664882 18.21620175 -2.44004321 18.30894168 -4.8125 17 C-6.74764597 13.7408068 -6.84707595 10.59843117 -6 7 C-4.28333282 4.35284946 -2.28041632 2.17182506 0 0 Z " fill="#281D12" transform="translate(190,270)"/>
<path d="M0 0 C-0.60226048 4.21582339 -1.57097144 4.57097144 -5 8 C-1.04 6.35 2.92 4.7 7 3 C4.42592593 8.14814815 4.42592593 8.14814815 1 10 C-5.16216216 10.64864865 -5.16216216 10.64864865 -7.9375 8.5 C-8.288125 8.005 -8.63875 7.51 -9 7 C-5.25 4 -5.25 4 -3 4 C-3 3.34 -3 2.68 -3 2 C-4.6396875 2.7425 -4.6396875 2.7425 -6.3125 3.5 C-10 5 -10 5 -13 5 C-12.375 3.125 -12.375 3.125 -11 1 C-6.96362635 -0.88364104 -4.27242501 -1.25659559 0 0 Z " fill="#FFEDE6" transform="translate(317,422)"/>
<path d="M0 0 C0.99 0 1.98 0 3 0 C2.814375 0.598125 2.62875 1.19625 2.4375 1.8125 C1.77906313 4.16408762 1.77906313 4.16408762 3 7 C2.28735352 8.90112305 2.28735352 8.90112305 1.12890625 11.01171875 C0.51499023 12.14770508 0.51499023 12.14770508 -0.11132812 13.30664062 C-0.54896484 14.09232422 -0.98660156 14.87800781 -1.4375 15.6875 C-1.87126953 16.48478516 -2.30503906 17.28207031 -2.75195312 18.10351562 C-3.82574763 20.07410554 -4.90864182 22.03909927 -6 24 C-6.99 24 -7.98 24 -9 24 C-7.41640307 17.83298432 -5.44492705 12.5307458 -2.0859375 7.10546875 C-0.87070474 4.74931602 -0.40967067 2.60823658 0 0 Z " fill="#FFA571" transform="translate(356,381)"/>
<path d="M0 0 C0.66 0 1.32 0 2 0 C2 0.99 2 1.98 2 3 C2.99 3 3.98 3 5 3 C5.33 3.66 5.66 4.32 6 5 C6.66 5.33 7.32 5.66 8 6 C7.34 6.66 6.68 7.32 6 8 C6 8.99 6 9.98 6 11 C6.99 11.33 7.98 11.66 9 12 C9 12.99 9 13.98 9 15 C9.66 15.33 10.32 15.66 11 16 C8.03 16 5.06 16 2 16 C2.33 15.01 2.66 14.02 3 13 C1.68 13.33 0.36 13.66 -1 14 C-1 12.33333333 -1 10.66666667 -1 9 C-0.01 8.67 0.98 8.34 2 8 C2.33 7.34 2.66 6.68 3 6 C1.68 5.34 0.36 4.68 -1 4 C-0.67 2.68 -0.34 1.36 0 0 Z " fill="#FB8653" transform="translate(291,293)"/>
<path d="M0 0 C0.66 0 1.32 0 2 0 C1.731875 1.216875 1.46375 2.43375 1.1875 3.6875 C1.00574219 4.52796875 0.82398437 5.3684375 0.63671875 6.234375 C0.22421071 8.0261277 -0.22925494 9.80913508 -0.73046875 11.578125 C-3.92641975 23.45343533 -4.23767446 35.77678739 -5 48 C-5.33 48 -5.66 48 -6 48 C-7.65019957 30.82201897 -5.06333042 16.44939831 0 0 Z " fill="#FF9B61" transform="translate(69,201)"/>
<path d="M0 0 C0.66 0.33 1.32 0.66 2 1 C1.443125 1.680625 0.88625 2.36125 0.3125 3.0625 C-1.26147827 5.77593113 -1.26147827 5.77593113 -0.53125 7.890625 C0.2328007 9.63096271 1.11069955 11.32021027 2 13 C-2.75 14.125 -2.75 14.125 -5 13 C-5 13.66 -5 14.32 -5 15 C-7 15 -7 15 -8.625 13.6875 C-10 12 -10 12 -10 9 C-7.58000791 6.14786647 -5.29550382 4.64775191 -2 3 C-1.34 2.01 -0.68 1.02 0 0 Z " fill="#FFA673" transform="translate(360,282)"/>
<path d="M0 0 C-0.94483796 2.35722461 -1.53130764 3.71836423 -3.7421875 5.046875 C-10.21588424 7.18106074 -16.22098627 7.30970113 -23 7 C-23 6.01 -23 5.02 -23 4 C-21.95199219 3.79503906 -20.90398437 3.59007812 -19.82421875 3.37890625 C-18.44529231 3.10687314 -17.06638717 2.83473209 -15.6875 2.5625 C-14.65206055 2.36043945 -14.65206055 2.36043945 -13.59570312 2.15429688 C-2.3926461 -0.06466611 -2.3926461 -0.06466611 0 0 Z " fill="#F9B473" transform="translate(209,287)"/>
<path d="M0 0 C4 2 8 4 12 6 C11.071875 7.5778125 11.071875 7.5778125 10.125 9.1875 C8.48420892 12.05015677 7.13015547 14.89207246 6 18 C3.92191323 15.92191323 3.4694445 14.84070953 2.5625 12.125 C1.44092906 8.97773461 0.22575623 6.5437214 -2 4 C-1.67 3.34 -1.34 2.68 -1 2 C0.65 3.98 2.3 5.96 4 8 C3.525625 7.236875 3.05125 6.47375 2.5625 5.6875 C1 3 1 3 0 0 Z " fill="#FFEEE6" transform="translate(236,366)"/>
<path d="M0 0 C1.32 0.66 2.64 1.32 4 2 C3.7073985 5.51121797 3.1900372 6.80482666 0.6875 9.375 C-2 11 -2 11 -4.1875 11 C-6 10 -6 10 -8 6 C-5.36 4.02 -2.72 2.04 0 0 Z " fill="#FFF9F7" transform="translate(133,351)"/>
<path d="M0 0 C2.31 0 4.62 0 7 0 C7 4.29 7 8.58 7 13 C2.45521472 10.72760736 2.45521472 10.72760736 0.6875 7.0625 C0.16736328 6.02802734 0.16736328 6.02802734 -0.36328125 4.97265625 C-1 3 -1 3 0 0 Z " fill="#F2A265" transform="translate(99,234)"/>
<path d="M0 0 C-3.33196835 2.22131223 -6.58046273 3.15567023 -10.375 4.25 C-17.09625058 6.24392247 -23.16879314 8.77356338 -29.42578125 11.9609375 C-32 13 -32 13 -35 12 C-32.79126684 9.51800802 -30.91185246 8.36730826 -27.796875 7.24609375 C-26.98089844 6.94896484 -26.16492188 6.65183594 -25.32421875 6.34570312 C-24.47472656 6.04599609 -23.62523437 5.74628906 -22.75 5.4375 C-21.49896484 4.98213867 -21.49896484 4.98213867 -20.22265625 4.51757812 C-6.76739796 -0.33011697 -6.76739796 -0.33011697 0 0 Z " fill="#FFECE3" transform="translate(189,93)"/>
<path d="M0 0 C0 0.66 0 1.32 0 2 C0.66 2 1.32 2 2 2 C2 3.32 2 4.64 2 6 C-3.35714286 7.33928571 -3.35714286 7.33928571 -6.25 5.8125 C-8.03140689 3.96747143 -9.02378441 2.35918768 -10 0 C-6.30581799 -1.231394 -3.7943739 -0.64432764 0 0 Z " fill="#FFB991" transform="translate(183,415)"/>
<path d="M0 0 C0 3.56986156 -0.6045429 4.02094908 -2.9375 6.5625 C-6.51713178 10.49755621 -7.16341982 12.76592334 -7.5625 18.125 C-7.64628906 19.22070312 -7.73007812 20.31640625 -7.81640625 21.4453125 C-7.87699219 22.28835938 -7.93757813 23.13140625 -8 24 C-10.73588922 19.89616618 -10.61621047 16.82220515 -10 12 C-8.88585855 8.23613954 -7.51537478 4.61931029 -6 1 C-4.02 0.67 -2.04 0.34 0 0 Z " fill="#FFE1D5" transform="translate(341,324)"/>
<path d="M0 0 C2.64 0 5.28 0 8 0 C8 2.64 8 5.28 8 8 C5.36 8 2.72 8 0 8 C0.33 7.34 0.66 6.68 1 6 C1.66 6.33 2.32 6.66 3 7 C3 6.34 3 5.68 3 5 C1.68 4.34 0.36 3.68 -1 3 C-0.67 2.01 -0.34 1.02 0 0 Z " fill="#FFBC9B" transform="translate(240,199)"/>
<path d="M0 0 C0.33 0.66 0.66 1.32 1 2 C0.10539062 2.4846875 -0.78921875 2.969375 -1.7109375 3.46875 C-8.68255568 7.31275969 -14.9839462 11.26328071 -21.01171875 16.53125 C-23 18 -23 18 -26 18 C-24.89504089 14.68512266 -24.53900106 14.41871618 -21.71875 12.6953125 C-21.04521484 12.27878418 -20.37167969 11.86225586 -19.67773438 11.43310547 C-18.95908203 11.00143066 -18.24042969 10.56975586 -17.5 10.125 C-16.77619141 9.68172363 -16.05238281 9.23844727 -15.30664062 8.78173828 C-10.27669249 5.71851338 -5.19181953 2.78133189 0 0 Z " fill="#FFEAE1" transform="translate(148,107)"/>
<path d="M0 0 C4.1666604 0.47348414 6.92884715 1.04696841 10 4 C10 4.66 10 5.32 10 6 C8.39620659 6.05416188 6.79188594 6.09286638 5.1875 6.125 C4.29417969 6.14820313 3.40085937 6.17140625 2.48046875 6.1953125 C0 6 0 6 -3 4 C-2.01 2.68 -1.02 1.36 0 0 Z " fill="#DD945C" transform="translate(115,285)"/>
<path d="M0 0 C3.96 0 7.92 0 12 0 C10.33333333 1.66666667 8.66666667 3.33333333 7 5 C5.700625 6.3921875 5.700625 6.3921875 4.375 7.8125 C2 10 2 10 -1 10 C-0.34 9.34 0.32 8.68 1 8 C1.28602162 3.85490567 1.28602162 3.85490567 0 0 Z " fill="#FF995C" transform="translate(208,187)"/>
<path d="M0 0 C3.96 0 7.92 0 12 0 C10.33333333 1.66666667 8.66666667 3.33333333 7 5 C5.700625 6.3921875 5.700625 6.3921875 4.375 7.8125 C2 10 2 10 -1 10 C-0.34 9.34 0.32 8.68 1 8 C1.28602162 3.85490567 1.28602162 3.85490567 0 0 Z " fill="#FF995C" transform="translate(158,187)"/>
<path d="M0 0 C1.051875 0.433125 1.051875 0.433125 2.125 0.875 C5.05452503 2.02133588 8.00921653 3.02625654 11 4 C10.34 3.01 9.68 2.02 9 1 C12.3 1 15.6 1 19 1 C17.02 1.99 17.02 1.99 15 3 C15.95865509 5.33075929 15.95865509 5.33075929 19 7 C12.71964864 7.54611751 7.53965687 6.02807569 2 3 C1.34 2.01 0.68 1.02 0 0 Z " fill="#FFE3D6" transform="translate(250,424)"/>
<path d="M0 0 C0.66 0 1.32 0 2 0 C3.02611949 1.65071396 4.02308143 3.31970006 5 5 C5.99 5.99 6.98 6.98 8 8 C3.05 8 -1.9 8 -7 8 C-5.35 6.68 -3.7 5.36 -2 4 C-0.68834743 1.88339573 -0.68834743 1.88339573 0 0 Z " fill="#FF9453" transform="translate(235,282)"/>
<path d="M0 0 C1.32 2.64 2.64 5.28 4 8 C-0.62609198 8.3227506 -3.28026121 7.84450614 -7 5 C-7 4.34 -7 3.68 -7 3 C-2.61538462 0 -2.61538462 0 0 0 Z " fill="#D9905A" transform="translate(102,262)"/>
<path d="M0 0 C0.33 0.66 0.66 1.32 1 2 C-0.29296875 4.4609375 -0.29296875 4.4609375 -2.1875 7.375 C-2.79980469 8.33148438 -3.41210938 9.28796875 -4.04296875 10.2734375 C-5.88731298 12.84300291 -7.55338929 14.99520443 -10 17 C-11.32 17 -12.64 17 -14 17 C-12.87051735 13.61155204 -11.96599081 12.93504524 -9.25 10.75 C-5.40087666 7.50316754 -2.74699187 4.20633131 0 0 Z " fill="#FFF0EA" transform="translate(332,419)"/>
<path d="M0 0 C0.99 0.33 1.98 0.66 3 1 C2.48050781 1.82242188 1.96101563 2.64484375 1.42578125 3.4921875 C-2.7515173 10.17895375 -6.64384852 16.85204275 -10 24 C-10.66 23.34 -11.32 22.68 -12 22 C-10.37771007 18.89440972 -8.75170194 15.79078125 -7.125 12.6875 C-6.66480469 11.80642578 -6.20460938 10.92535156 -5.73046875 10.01757812 C-5.28574219 9.17001953 -4.84101562 8.32246094 -4.3828125 7.44921875 C-3.97434082 6.66893311 -3.56586914 5.88864746 -3.14501953 5.0847168 C-2 3 -2 3 0 0 Z " fill="#FF9D65" transform="translate(89,162)"/>
<path d="M0 0 C1.2065625 0.0309375 1.2065625 0.0309375 2.4375 0.0625 C3.0975 1.3825 3.7575 2.7025 4.4375 4.0625 C3.4475 5.5475 3.4475 5.5475 2.4375 7.0625 C-0.125 7.3125 -0.125 7.3125 -2.5625 7.0625 C-3.5625 6.0625 -3.5625 6.0625 -3.6875 3.5625 C-3.51717518 0.15600356 -3.41884482 0.08338646 0 0 Z " fill="#1E160E" transform="translate(199.5625,270.9375)"/>
<path d="M0 0 C0 0.66 0 1.32 0 2 C-6 4 -12 6 -18 8 C-18 7.01 -18 6.02 -18 5 C-15.56686628 3.96748938 -13.12943108 2.94880479 -10.6875 1.9375 C-9.65206055 1.49567383 -9.65206055 1.49567383 -8.59570312 1.04492188 C-3.33984375 -1.11328125 -3.33984375 -1.11328125 0 0 Z " fill="#FF9F68" transform="translate(181,97)"/>
<path d="M0 0 C0.33 0 0.66 0 1 0 C1.66 8.25 2.32 16.5 3 25 C2.01 25 1.02 25 0 25 C-0.19693992 22.33373641 -0.38274782 19.66743361 -0.5625 17 C-0.64661133 15.88431641 -0.64661133 15.88431641 -0.73242188 14.74609375 C-1.06347285 9.66997882 -0.77163045 5.02988738 0 0 Z " fill="#FFA673" transform="translate(63,256)"/>
<path d="M0 0 C2.33475977 2.33475977 2.30531026 3.00819709 2.5625 6.1875 C2.92180242 10.15265886 3.41353698 14.06231974 4 18 C3.34 18 2.68 18 2 18 C1.67 18.66 1.34 19.32 1 20 C-1.48063781 6.3667426 -1.48063781 6.3667426 0 0 Z " fill="#FF9B60" transform="translate(226,362)"/>
<path d="M0 0 C2.125 0.375 2.125 0.375 4 1 C4.625 3.375 4.625 3.375 5 6 C4.34 6.66 3.68 7.32 3 8 C0.875 7.625 0.875 7.625 -1 7 C-1.625 4.625 -1.625 4.625 -2 2 C-1.34 1.34 -0.68 0.68 0 0 Z " fill="#FFB893" transform="translate(281,199)"/>
<path d="M0 0 C0.66 0 1.32 0 2 0 C2.33 4.29 2.66 8.58 3 13 C2.01 13 1.02 13 0 13 C-1.18306728 10.63386544 -1.13354608 9.13219264 -1.125 6.5 C-1.12757813 5.7059375 -1.13015625 4.911875 -1.1328125 4.09375 C-1 2 -1 2 0 0 Z " fill="#FFF5F1" transform="translate(341,296)"/>
<path d="M0 0 C0.66 0.33 1.32 0.66 2 1 C1.443125 1.680625 0.88625 2.36125 0.3125 3.0625 C-1.26147827 5.77593113 -1.26147827 5.77593113 -0.53125 7.890625 C0.2328007 9.63096271 1.11069955 11.32021027 2 13 C0.35 13.33 -1.3 13.66 -3 14 C-3.66 12.35 -4.32 10.7 -5 9 C-4.34 8.67 -3.68 8.34 -3 8 C-2.64984951 6.33678518 -2.31802943 4.66965451 -2 3 C-1.34 2.01 -0.68 1.02 0 0 Z " fill="#FFBB95" transform="translate(360,282)"/>
<path d="M0 0 C7.63866698 1.73248117 14.81536384 3.86864309 22 7 C20.0625 7.5625 20.0625 7.5625 18 8 C17.67 7.67 17.34 7.34 17 7 C14.48393551 6.75650989 11.96913976 6.61636634 9.4453125 6.4765625 C6.61781023 5.92551573 5.83656961 5.14175625 4 3 C1.90010348 1.82425289 1.90010348 1.82425289 0 1 C0 0.67 0 0.34 0 0 Z " fill="#B7774C" transform="translate(191,265)"/>
<path d="M0 0 C2.86697492 1.28519565 4.97607712 2.57129254 7 5 C7 5.66 7 6.32 7 7 C3.7 6.67 0.4 6.34 -3 6 C-2.01 4.02 -1.02 2.04 0 0 Z " fill="#CB8754" transform="translate(158,248)"/>
<path d="M0 0 C2.0625 0.4375 2.0625 0.4375 4 1 C2.68 1.33 1.36 1.66 0 2 C0.99 3.32 1.98 4.64 3 6 C0.69 6 -1.62 6 -4 6 C-4 4.68 -4 3.36 -4 2 C-4.66 2 -5.32 2 -6 2 C-6 3.32 -6 4.64 -6 6 C-6.66 6 -7.32 6 -8 6 C-8 4.35 -8 2.7 -8 1 C-6.865625 1.020625 -5.73125 1.04125 -4.5625 1.0625 C-1.18424326 1.41577477 -1.18424326 1.41577477 0 0 Z " fill="#FFA97C" transform="translate(257,201)"/>
<path d="M0 0 C2.24434537 3.36651805 2.20138902 4.21596988 1.9765625 8.10546875 C1.89921875 9.57983398 1.89921875 9.57983398 1.8203125 11.08398438 C1.75585938 12.10814453 1.69140625 13.13230469 1.625 14.1875 C1.56828125 15.22326172 1.5115625 16.25902344 1.453125 17.32617188 C1.31163334 19.88481271 1.16022134 22.44247484 1 25 C0.67 25 0.34 25 0 25 C-0.19629336 22.14619655 -0.38226546 19.29232606 -0.5625 16.4375 C-0.61857422 15.63763672 -0.67464844 14.83777344 -0.73242188 14.01367188 C-1.02968013 9.15845373 -0.86778632 4.78889489 0 0 Z " fill="#FFB188" transform="translate(63,224)"/>
<path d="M0 0 C0.66 0 1.32 0 2 0 C1.60446947 1.6510403 1.18286103 3.2958515 0.75 4.9375 C0.40195312 6.31228516 0.40195312 6.31228516 0.046875 7.71484375 C-1 10 -1 10 -3.109375 10.81640625 C-3.73328125 10.87699219 -4.3571875 10.93757813 -5 11 C-4.54917531 9.53932801 -4.08906463 8.08151968 -3.625 6.625 C-3.36976563 5.81289063 -3.11453125 5.00078125 -2.8515625 4.1640625 C-2 2 -2 2 0 0 Z " fill="#FF9C61" transform="translate(259,377)"/>
<path d="M0 0 C2.27183419 2.46115371 2.9736202 3.73620199 3.3125 7.125 C3 10 3 10 1 12 C-0.79760213 8.18009548 -1.28743526 5.21571713 -1 1 C-0.67 0.67 -0.34 0.34 0 0 Z " fill="#FFE8DF" transform="translate(254,410)"/>
<path d="M0 0 C1.98 0.66 3.96 1.32 6 2 C6 2.99 6 3.98 6 5 C6.66 5.33 7.32 5.66 8 6 C5.03 6 2.06 6 -1 6 C-0.67 4.02 -0.34 2.04 0 0 Z " fill="#FE6741" transform="translate(294,303)"/>
<path d="M0 0 C-6.6 0 -13.2 0 -20 0 C-20 -0.33 -20 -0.66 -20 -1 C-17.73052303 -1.36275656 -15.45935265 -1.71493186 -13.1875 -2.0625 C-11.92292969 -2.25972656 -10.65835937 -2.45695312 -9.35546875 -2.66015625 C-5.09821191 -3.0913336 -3.54835436 -2.36556957 0 0 Z " fill="#FFEFE9" transform="translate(282,415)"/>
<path d="M0 0 C1 2 1 2 0.4765625 3.8828125 C0.19554687 4.62273437 -0.08546875 5.36265625 -0.375 6.125 C-1.9127911 10.45749823 -2.58449112 14.42940231 -3 19 C-3.33 19 -3.66 19 -4 19 C-4.144375 18.21625 -4.28875 17.4325 -4.4375 16.625 C-4.87798925 14.03578982 -4.87798925 14.03578982 -6 12 C-4.78515625 9.1796875 -4.78515625 9.1796875 -3.0625 5.875 C-2.49660156 4.77929688 -1.93070312 3.68359375 -1.34765625 2.5546875 C-0.90292969 1.71164062 -0.45820313 0.86859375 0 0 Z " fill="#FFE2D5" transform="translate(336,303)"/>
<path d="M0 0 C1.65 0.33 3.3 0.66 5 1 C5.33 1.99 5.66 2.98 6 4 C5.34 4 4.68 4 4 4 C3.67 4.66 3.34 5.32 3 6 C2.34 5.67 1.68 5.34 1 5 C1.33 6.32 1.66 7.64 2 9 C0.35 8.67 -1.3 8.34 -3 8 C-2.34 7.34 -1.68 6.68 -1 6 C-0.60235737 4.01178687 -0.26224651 2.01055661 0 0 Z " fill="#FEB77F" transform="translate(306,301)"/>
<path d="M0 0 C1.9451 2.91765 2.45276317 4.62537285 3 8 C1.35 8.66 -0.3 9.32 -2 10 C-1.125 2.25 -1.125 2.25 0 0 Z " fill="#FFE8DE" transform="translate(337,308)"/>
<path d="M0 0 C1.65 0 3.3 0 5 0 C5 1.98 5 3.96 5 6 C4.67 6 4.34 6 4 6 C3.67 7.98 3.34 9.96 3 12 C2.34 11.67 1.68 11.34 1 11 C1.03255208 9.01432292 1.06510417 7.02864583 1.09765625 5.04296875 C1.08263217 2.79694539 1.08263217 2.79694539 0 0 Z " fill="#D68F59" transform="translate(171,278)"/>
<path d="M0 0 C4.71403788 0.47939368 8.66579301 0.96834048 13 3 C13 3.33 13 3.66 13 4 C9.04 3.67 5.08 3.34 1 3 C0.67 2.01 0.34 1.02 0 0 Z " fill="#FBB674" transform="translate(141,291)"/>
<path d="M0 0 C1.32 0.66 2.64 1.32 4 2 C3.1875 3.9375 3.1875 3.9375 2 6 C1.01 6.33 0.02 6.66 -1 7 C-1 6.34 -1 5.68 -1 5 C-1.66 5 -2.32 5 -3 5 C-1.125 1.125 -1.125 1.125 0 0 Z " fill="#FFC8AC" transform="translate(363,283)"/>
<path d="M0 0 C2.0625 0.4375 2.0625 0.4375 4 1 C3.67 2.32 3.34 3.64 3 5 C3.66 5.33 4.32 5.66 5 6 C5 6.66 5 7.32 5 8 C3.02 8 1.04 8 -1 8 C0 6 1 4 2 2 C1.01 1.67 0.02 1.34 -1 1 C-0.67 0.67 -0.34 0.34 0 0 Z " fill="#FFA572" transform="translate(288,199)"/>
<path d="M0 0 C2.0625 0.4375 2.0625 0.4375 4 1 C3.814375 1.598125 3.62875 2.19625 3.4375 2.8125 C2.77906313 5.16408762 2.77906313 5.16408762 4 8 C2.35 8 0.7 8 -1 8 C-1 5 -1 5 0.5 3.3125 C1.2425 2.6628125 1.2425 2.6628125 2 2 C1.01 1.67 0.02 1.34 -1 1 C-0.67 0.67 -0.34 0.34 0 0 Z " fill="#FFA170" transform="translate(274,199)"/>
<path d="M0 0 C0.66 0 1.32 0 2 0 C2 0.99 2 1.98 2 3 C2.99 3 3.98 3 5 3 C5 4.32 5 5.64 5 7 C2.5625 6.25 2.5625 6.25 0 5 C-0.875 2.9375 -0.875 2.9375 -1 1 C-0.67 0.67 -0.34 0.34 0 0 Z " fill="#FE6952" transform="translate(291,293)"/>
<path d="M0 0 C1.32 0.33 2.64 0.66 4 1 C2.77065985 4.68802044 1.06140622 5.72356973 -2 8 C-2.66 7.67 -3.32 7.34 -4 7 C-3.525625 6.401875 -3.05125 5.80375 -2.5625 5.1875 C-0.83534256 2.99617076 -0.83534256 2.99617076 0 0 Z " fill="#D58D58" transform="translate(193,271)"/>
<path d="M0 0 C1 3 1 3 0.22265625 5.04296875 C-0.16019531 5.75066406 -0.54304687 6.45835937 -0.9375 7.1875 C-1.31777344 7.90292969 -1.69804687 8.61835938 -2.08984375 9.35546875 C-2.54037109 10.16951172 -2.54037109 10.16951172 -3 11 C-4.06192476 7.73635123 -4.07454186 7.17280159 -2.625 3.8125 C-1 1 -1 1 0 0 Z " fill="#FFF3EF" transform="translate(256,379)"/>
<path d="M0 0 C1.98 0.495 1.98 0.495 4 1 C3.67 2.32 3.34 3.64 3 5 C1.68 4.67 0.36 4.34 -1 4 C-0.67 2.68 -0.34 1.36 0 0 Z " fill="#FFAF87" transform="translate(263,202)"/>
<path d="M0 0 C0.33 2.31 0.66 4.62 1 7 C0.34 7 -0.32 7 -1 7 C-1.33 7.66 -1.66 8.32 -2 9 C-2.33 6.36 -2.66 3.72 -3 1 C-1 0 -1 0 0 0 Z " fill="#FFA978" transform="translate(229,373)"/>
<path d="M0 0 C1.65 0 3.3 0 5 0 C5 0.66 5 1.32 5 2 C2.35261084 3.4606285 1.10551666 4 -2 4 C-1.34 2.68 -0.68 1.36 0 0 Z " fill="#FFF1EC" transform="translate(306,423)"/>
<path d="M0 0 C0.99 0 1.98 0 3 0 C2.835 0.598125 2.67 1.19625 2.5 1.8125 C1.8885876 4.11344336 1.8885876 4.11344336 2 7 C1.01 7 0.02 7 -1 7 C-1.04254356 5.00045254 -1.04080783 2.99958364 -1 1 C-0.67 0.67 -0.34 0.34 0 0 Z " fill="#FFB892" transform="translate(356,381)"/>
<path d="M0 0 C2.475 0.99 2.475 0.99 5 2 C5 2.99 5 3.98 5 5 C3.125 4.6875 3.125 4.6875 1 4 C0.34 3.01 -0.32 2.02 -1 1 C-0.67 0.67 -0.34 0.34 0 0 Z " fill="#FFEBE3" transform="translate(115,383)"/>
<path d="M0 0 C2.50298434 2.93828597 3.46930939 5.17902761 4 9 C3.01 9 2.02 9 1 9 C0.67 6.03 0.34 3.06 0 0 Z " fill="#FFEAE1" transform="translate(227,364)"/>
<path d="M0 0 C1.32 0.66 2.64 1.32 4 2 C3.67 2.99 3.34 3.98 3 5 C2.01 5 1.02 5 0 5 C-0.5625 3.0625 -0.5625 3.0625 -1 1 C-0.67 0.67 -0.34 0.34 0 0 Z " fill="#FFF4EF" transform="translate(87,353)"/>
<path d="M0 0 C2.475 0.495 2.475 0.495 5 1 C3.84826645 3.46800047 2.95216435 5.04783565 1 7 C-0.231394 4.53721199 -0.07159196 2.7204945 0 0 Z " fill="#FFF5EC" transform="translate(285,200)"/>
<path d="M0 0 C0.99 0.33 1.98 0.66 3 1 C0.6875 3.5 0.6875 3.5 -2 6 C-2.99 6 -3.98 6 -5 6 C-3.35 4.02 -1.7 2.04 0 0 Z " fill="#FFE7DD" transform="translate(135,383)"/>
<path d="M0 0 C0.66 0 1.32 0 2 0 C2 2.64 2 5.28 2 8 C1.34 8 0.68 8 0 8 C-0.38063221 5.6739143 -0.71269945 3.33944736 -1 1 C-0.67 0.67 -0.34 0.34 0 0 Z " fill="#FFAF70" transform="translate(294,199)"/>
<path d="M0 0 C0.66 0 1.32 0 2 0 C1.67 2.31 1.34 4.62 1 7 C0.01 6.67 -0.98 6.34 -2 6 C-1.34 4.02 -0.68 2.04 0 0 Z " fill="#FFEBE2" transform="translate(69,194)"/>
</svg>
